<svg width="210" height="114" viewBox="0 0 210 114" fill="none" xmlns="http://www.w3.org/2000/svg">
<path d="M3.374 11.168C2.93533 11.168 2.53867 11.0887 2.184 10.93C1.83867 10.762 1.56333 10.5333 1.358 10.244C1.162 9.94533 1.064 9.59533 1.064 9.194C1.064 8.42867 1.43733 7.84533 2.184 7.444C2.94 7.04267 4.17667 6.77667 5.894 6.646C5.88467 6.366 5.81933 6.10933 5.698 5.876C5.586 5.64267 5.404 5.46067 5.152 5.33C4.90933 5.19 4.58733 5.12 4.186 5.12C3.906 5.12 3.63067 5.15733 3.36 5.232C3.08933 5.29733 2.828 5.39067 2.576 5.512C2.324 5.63333 2.086 5.75933 1.862 5.89L1.344 4.952C1.596 4.80267 1.88533 4.65333 2.212 4.504C2.53867 4.34533 2.88867 4.21933 3.262 4.126C3.64467 4.03267 4.032 3.986 4.424 3.986C5.05867 3.986 5.586 4.10267 6.006 4.336C6.426 4.56933 6.74333 4.90067 6.958 5.33C7.17267 5.75933 7.28 6.27733 7.28 6.884V11H6.146L6.034 10.118H5.992C5.628 10.398 5.21733 10.6453 4.76 10.86C4.30267 11.0653 3.84067 11.168 3.374 11.168ZM3.766 10.062C4.13 10.062 4.48933 9.98267 4.844 9.824C5.19867 9.66533 5.54867 9.44133 5.894 9.152V7.528C4.998 7.59333 4.29333 7.696 3.78 7.836C3.276 7.976 2.92133 8.15333 2.716 8.368C2.51067 8.57333 2.408 8.816 2.408 9.096C2.408 9.32 2.46867 9.50667 2.59 9.656C2.72067 9.796 2.88867 9.89867 3.094 9.964C3.29933 10.0293 3.52333 10.062 3.766 10.062ZM9.62653 13.8V4.154H10.7605L10.8725 4.994H10.9145C11.2225 4.70467 11.5772 4.46667 11.9785 4.28C12.3799 4.084 12.7859 3.986 13.1965 3.986C13.8032 3.986 14.3119 4.13067 14.7225 4.42C15.1425 4.70933 15.4599 5.11533 15.6745 5.638C15.8985 6.16067 16.0105 6.772 16.0105 7.472C16.0105 8.256 15.8659 8.92333 15.5765 9.474C15.2872 10.0247 14.9092 10.4447 14.4425 10.734C13.9759 11.0233 13.4719 11.168 12.9305 11.168C12.6225 11.168 12.2912 11.0933 11.9365 10.944C11.5912 10.7947 11.2739 10.5893 10.9845 10.328H10.9425L11.0125 11.56V13.8H9.62653ZM12.6645 10.02C13.0285 10.02 13.3552 9.922 13.6445 9.726C13.9339 9.53 14.1625 9.24533 14.3305 8.872C14.4985 8.48933 14.5825 8.02733 14.5825 7.486C14.5825 7.01 14.5172 6.59933 14.3865 6.254C14.2652 5.89933 14.0785 5.62867 13.8265 5.442C13.5745 5.246 13.2385 5.148 12.8185 5.148C12.5385 5.148 12.2445 5.22267 11.9365 5.372C11.6285 5.512 11.3205 5.74533 11.0125 6.072V9.306C11.3019 9.558 11.5959 9.74 11.8945 9.852C12.1932 9.964 12.4499 10.02 12.6645 10.02ZM21.0731 11V5.274H18.0071V4.154H22.4591V11H21.0731ZM21.6471 2.824C21.3484 2.824 21.1011 2.73533 20.9051 2.558C20.7091 2.37133 20.6111 2.12867 20.6111 1.83C20.6111 1.53133 20.7091 1.29333 20.9051 1.116C21.1011 0.929333 21.3484 0.836 21.6471 0.836C21.9457 0.836 22.1931 0.929333 22.3891 1.116C22.5851 1.29333 22.6831 1.53133 22.6831 1.83C22.6831 2.12867 22.5851 2.37133 22.3891 2.558C22.1931 2.73533 21.9457 2.824 21.6471 2.824ZM28.5716 11L25.6736 1.83H27.1576L28.5436 6.604C28.7023 7.136 28.8423 7.64 28.9636 8.116C29.0849 8.58267 29.2249 9.082 29.3836 9.614H29.4396C29.6076 9.082 29.7523 8.58267 29.8736 8.116C30.0043 7.64 30.1443 7.136 30.2936 6.604L31.6656 1.83H33.0936L30.2096 11H28.5716ZM38.1981 11.168C37.5075 11.168 36.8775 11.028 36.3081 10.748C35.7481 10.468 35.3048 10.0573 34.9781 9.516C34.6515 8.97467 34.4881 8.326 34.4881 7.57C34.4881 6.82333 34.6515 6.184 34.9781 5.652C35.3141 5.12 35.7481 4.70933 36.2801 4.42C36.8121 4.13067 37.3815 3.986 37.9881 3.986C38.6601 3.986 39.2295 4.126 39.6961 4.406C40.1628 4.67667 40.5175 5.05467 40.7601 5.54C41.0121 6.016 41.1381 6.576 41.1381 7.22C41.1381 7.36 41.1335 7.5 41.1241 7.64C41.1148 7.77067 41.1008 7.88267 41.0821 7.976H35.4541V6.954H40.2141L39.9061 7.29C39.9061 6.55267 39.7381 6.002 39.4021 5.638C39.0661 5.26467 38.6088 5.078 38.0301 5.078C37.6288 5.078 37.2601 5.176 36.9241 5.372C36.5975 5.55867 36.3361 5.83867 36.1401 6.212C35.9441 6.576 35.8461 7.02867 35.8461 7.57C35.8461 8.13 35.9535 8.59667 36.1681 8.97C36.3921 9.334 36.6908 9.60933 37.0641 9.796C37.4468 9.98267 37.8855 10.076 38.3801 10.076C38.7628 10.076 39.1128 10.0247 39.4301 9.922C39.7475 9.81 40.0601 9.66067 40.3681 9.474L40.8581 10.356C40.5128 10.5893 40.1161 10.7853 39.6681 10.944C39.2201 11.0933 38.7301 11.168 38.1981 11.168ZM43.9047 11V4.154H45.0527L45.1647 5.75H45.2067C45.5613 5.19 45.9953 4.756 46.5087 4.448C47.022 4.14 47.582 3.986 48.1887 3.986C48.45 3.986 48.688 4.00933 48.9027 4.056C49.1173 4.10267 49.3273 4.17267 49.5327 4.266L49.2247 5.456C48.9913 5.372 48.7907 5.316 48.6227 5.288C48.4547 5.25067 48.24 5.232 47.9787 5.232C47.484 5.232 47.008 5.372 46.5507 5.652C46.0933 5.932 45.6733 6.41733 45.2907 7.108V11H43.9047ZM54.6512 11.168C54.0072 11.168 53.3912 11.0607 52.8032 10.846C52.2152 10.6313 51.7159 10.384 51.3052 10.104L51.9212 9.208C52.3225 9.488 52.7565 9.70733 53.2232 9.866C53.6992 10.0247 54.2359 10.104 54.8332 10.104C55.3559 10.104 55.7432 10.0107 55.9952 9.824C56.2565 9.63733 56.3872 9.418 56.3872 9.166C56.3872 9.04467 56.3592 8.93267 56.3032 8.83C56.2565 8.72733 56.1632 8.634 56.0232 8.55C55.8925 8.45667 55.6919 8.368 55.4212 8.284C55.1599 8.2 54.8145 8.11133 54.3852 8.018C53.4799 7.83133 52.8079 7.57467 52.3692 7.248C51.9399 6.92133 51.7252 6.50133 51.7252 5.988C51.7252 5.40933 51.9725 4.93333 52.4672 4.56C52.9712 4.17733 53.6992 3.986 54.6512 3.986C55.1925 3.986 55.7059 4.07933 56.1912 4.266C56.6859 4.44333 57.1059 4.64867 57.4512 4.882L56.8072 5.75C56.4805 5.53533 56.1212 5.36733 55.7292 5.246C55.3465 5.11533 54.9452 5.05 54.5252 5.05C54.1799 5.05 53.9045 5.092 53.6992 5.176C53.4939 5.25067 53.3445 5.35333 53.2512 5.484C53.1579 5.61467 53.1112 5.75933 53.1112 5.918C53.1112 6.17933 53.2559 6.38467 53.5452 6.534C53.8439 6.674 54.3245 6.814 54.9872 6.954C55.7339 7.11267 56.3079 7.29 56.7092 7.486C57.1199 7.682 57.3999 7.91067 57.5492 8.172C57.7079 8.424 57.7872 8.72733 57.7872 9.082C57.7872 9.46467 57.6659 9.81467 57.4232 10.132C57.1805 10.4493 56.8259 10.7013 56.3592 10.888C55.9019 11.0747 55.3325 11.168 54.6512 11.168ZM63.0457 11V5.274H59.9797V4.154H64.4317V11H63.0457ZM63.6197 2.824C63.3211 2.824 63.0737 2.73533 62.8777 2.558C62.6817 2.37133 62.5837 2.12867 62.5837 1.83C62.5837 1.53133 62.6817 1.29333 62.8777 1.116C63.0737 0.929333 63.3211 0.836 63.6197 0.836C63.9184 0.836 64.1657 0.929333 64.3617 1.116C64.5577 1.29333 64.6557 1.53133 64.6557 1.83C64.6557 2.12867 64.5577 2.37133 64.3617 2.558C64.1657 2.73533 63.9184 2.824 63.6197 2.824ZM71.3563 11.168C70.7589 11.168 70.1989 11.028 69.6763 10.748C69.1629 10.468 68.7429 10.062 68.4163 9.53C68.0989 8.98867 67.9403 8.34 67.9403 7.584C67.9403 6.828 68.0989 6.184 68.4163 5.652C68.7429 5.11067 69.1629 4.7 69.6763 4.42C70.1989 4.13067 70.7589 3.986 71.3563 3.986C71.9536 3.986 72.5089 4.13067 73.0223 4.42C73.5449 4.7 73.9649 5.11067 74.2823 5.652C74.6089 6.184 74.7723 6.828 74.7723 7.584C74.7723 8.34 74.6089 8.98867 74.2823 9.53C73.9649 10.062 73.5449 10.468 73.0223 10.748C72.5089 11.028 71.9536 11.168 71.3563 11.168ZM71.3563 10.034C71.7576 10.034 72.1076 9.93133 72.4063 9.726C72.7049 9.52067 72.9336 9.236 73.0923 8.872C73.2603 8.508 73.3443 8.07867 73.3443 7.584C73.3443 7.09867 73.2603 6.674 73.0923 6.31C72.9336 5.93667 72.7049 5.64733 72.4063 5.442C72.1076 5.23667 71.7576 5.134 71.3563 5.134C70.9549 5.134 70.6049 5.23667 70.3063 5.442C70.0076 5.64733 69.7743 5.93667 69.6063 6.31C69.4476 6.674 69.3683 7.09867 69.3683 7.584C69.3683 8.07867 69.4476 8.508 69.6063 8.872C69.7743 9.236 70.0076 9.52067 70.3063 9.726C70.6049 9.93133 70.9549 10.034 71.3563 10.034ZM76.7828 11V4.154H77.9168L78.0288 5.26H78.0848C78.4301 4.90533 78.8034 4.60667 79.2048 4.364C79.6061 4.112 80.0728 3.986 80.6048 3.986C81.3981 3.986 81.9814 4.22867 82.3548 4.714C82.7374 5.19 82.9288 5.87133 82.9288 6.758V11H81.5428V6.94C81.5428 6.34267 81.4308 5.904 81.2068 5.624C80.9921 5.33467 80.6281 5.19 80.1148 5.19C79.7508 5.19 79.4241 5.28333 79.1348 5.47C78.8454 5.64733 78.5234 5.918 78.1688 6.282V11H76.7828ZM88.1453 6.282C87.7906 6.282 87.492 6.16067 87.2493 5.918C87.0066 5.67533 86.8853 5.36267 86.8853 4.98C86.8853 4.59733 87.0066 4.28467 87.2493 4.042C87.492 3.79933 87.7906 3.678 88.1453 3.678C88.5093 3.678 88.808 3.79933 89.0413 4.042C89.284 4.28467 89.4053 4.59733 89.4053 4.98C89.4053 5.36267 89.284 5.67533 89.0413 5.918C88.808 6.16067 88.5093 6.282 88.1453 6.282ZM88.1453 11.168C87.7906 11.168 87.492 11.0467 87.2493 10.804C87.0066 10.5613 86.8853 10.2487 86.8853 9.866C86.8853 9.48333 87.0066 9.17067 87.2493 8.928C87.492 8.68533 87.7906 8.564 88.1453 8.564C88.5093 8.564 88.808 8.68533 89.0413 8.928C89.284 9.17067 89.4053 9.48333 89.4053 9.866C89.4053 10.2487 89.284 10.5613 89.0413 10.804C88.808 11.0467 88.5093 11.168 88.1453 11.168ZM1.372 31V21.074H2.758V27.542H2.814L6.188 24.154H7.742L2.758 29.18V31H1.372ZM6.552 31L4.046 27.5L4.872 26.618L8.078 31H6.552ZM12.6785 31V25.274H9.61253V24.154H14.0645V31H12.6785ZM13.2525 22.824C12.9539 22.824 12.7065 22.7353 12.5105 22.558C12.3145 22.3713 12.2165 22.1287 12.2165 21.83C12.2165 21.5313 12.3145 21.2933 12.5105 21.116C12.7065 20.9293 12.9539 20.836 13.2525 20.836C13.5512 20.836 13.7985 20.9293 13.9945 21.116C14.1905 21.2933 14.2885 21.5313 14.2885 21.83C14.2885 22.1287 14.1905 22.3713 13.9945 22.558C13.7985 22.7353 13.5512 22.824 13.2525 22.824ZM18.0211 31V24.154H19.1551L19.2671 25.26H19.3231C19.6684 24.9053 20.0417 24.6067 20.4431 24.364C20.8444 24.112 21.3111 23.986 21.8431 23.986C22.6364 23.986 23.2197 24.2287 23.5931 24.714C23.9757 25.19 24.1671 25.8713 24.1671 26.758V31H22.7811V26.94C22.7811 26.3427 22.6691 25.904 22.4451 25.624C22.2304 25.3347 21.8664 25.19 21.3531 25.19C20.9891 25.19 20.6624 25.2833 20.3731 25.47C20.0837 25.6473 19.7617 25.918 19.4071 26.282V31H18.0211ZM28.9216 31.168C28.0349 31.168 27.3209 30.8553 26.7796 30.23C26.2383 29.5953 25.9676 28.7133 25.9676 27.584C25.9676 26.8467 26.1123 26.212 26.4016 25.68C26.7003 25.1387 27.0829 24.7233 27.5496 24.434C28.0163 24.1353 28.5109 23.986 29.0336 23.986C29.4349 23.986 29.7943 24.0607 30.1116 24.21C30.4289 24.3593 30.7229 24.5693 30.9936 24.84H31.0356L30.9656 23.622V21.074H32.3516V31H31.2176L31.1056 30.16H31.0636C30.7929 30.4307 30.4709 30.6687 30.0976 30.874C29.7243 31.07 29.3323 31.168 28.9216 31.168ZM29.2436 30.02C29.5516 30.02 29.8456 29.9453 30.1256 29.796C30.4149 29.6373 30.6949 29.404 30.9656 29.096V25.848C30.6949 25.596 30.4243 25.4187 30.1536 25.316C29.8829 25.204 29.6123 25.148 29.3416 25.148C28.9869 25.148 28.6603 25.246 28.3616 25.442C28.0723 25.638 27.8389 25.918 27.6616 26.282C27.4843 26.646 27.3956 27.0753 27.3956 27.57C27.3956 28.354 27.5589 28.9607 27.8856 29.39C28.2123 29.81 28.6649 30.02 29.2436 30.02ZM37.7781 26.282C37.4235 26.282 37.1248 26.1607 36.8821 25.918C36.6395 25.6753 36.5181 25.3627 36.5181 24.98C36.5181 24.5973 36.6395 24.2847 36.8821 24.042C37.1248 23.7993 37.4235 23.678 37.7781 23.678C38.1421 23.678 38.4408 23.7993 38.6741 24.042C38.9168 24.2847 39.0381 24.5973 39.0381 24.98C39.0381 25.3627 38.9168 25.6753 38.6741 25.918C38.4408 26.1607 38.1421 26.282 37.7781 26.282ZM37.7781 31.168C37.4235 31.168 37.1248 31.0467 36.8821 30.804C36.6395 30.5613 36.5181 30.2487 36.5181 29.866C36.5181 29.4833 36.6395 29.1707 36.8821 28.928C37.1248 28.6853 37.4235 28.564 37.7781 28.564C38.1421 28.564 38.4408 28.6853 38.6741 28.928C38.9168 29.1707 39.0381 29.4833 39.0381 29.866C39.0381 30.2487 38.9168 30.5613 38.6741 30.804C38.4408 31.0467 38.1421 31.168 37.7781 31.168ZM0.728 51V44.154H1.82L1.932 45.05H1.96C2.128 44.742 2.32867 44.49 2.562 44.294C2.79533 44.0887 3.108 43.986 3.5 43.986C3.82667 43.986 4.09733 44.084 4.312 44.28C4.52667 44.476 4.676 44.77 4.76 45.162C4.94667 44.8073 5.15667 44.5227 5.39 44.308C5.63267 44.0933 5.95 43.986 6.342 43.986C6.82733 43.986 7.20067 44.1727 7.462 44.546C7.73267 44.9193 7.868 45.4467 7.868 46.128V51H6.51V46.226C6.51 45.526 6.3 45.176 5.88 45.176C5.67467 45.176 5.502 45.2553 5.362 45.414C5.222 45.5727 5.068 45.8107 4.9 46.128V51H3.696V46.226C3.696 45.8807 3.64467 45.6193 3.542 45.442C3.44867 45.2647 3.29467 45.176 3.08 45.176C2.87467 45.176 2.69267 45.2553 2.534 45.414C2.38467 45.5727 2.23533 45.8107 2.086 46.128V51H0.728ZM13.0145 51.168C12.3239 51.168 11.6939 51.028 11.1245 50.748C10.5645 50.468 10.1212 50.0573 9.79453 49.516C9.46786 48.9747 9.30453 48.326 9.30453 47.57C9.30453 46.8233 9.46786 46.184 9.79453 45.652C10.1305 45.12 10.5645 44.7093 11.0965 44.42C11.6285 44.1307 12.1979 43.986 12.8045 43.986C13.4765 43.986 14.0459 44.126 14.5125 44.406C14.9792 44.6767 15.3339 45.0547 15.5765 45.54C15.8285 46.016 15.9545 46.576 15.9545 47.22C15.9545 47.36 15.9499 47.5 15.9405 47.64C15.9312 47.7707 15.9172 47.8827 15.8985 47.976H10.2705V46.954H15.0305L14.7225 47.29C14.7225 46.5527 14.5545 46.002 14.2185 45.638C13.8825 45.2647 13.4252 45.078 12.8465 45.078C12.4452 45.078 12.0765 45.176 11.7405 45.372C11.4139 45.5587 11.1525 45.8387 10.9565 46.212C10.7605 46.576 10.6625 47.0287 10.6625 47.57C10.6625 48.13 10.7699 48.5967 10.9845 48.97C11.2085 49.334 11.5072 49.6093 11.8805 49.796C12.2632 49.9827 12.7019 50.076 13.1965 50.076C13.5792 50.076 13.9292 50.0247 14.2465 49.922C14.5639 49.81 14.8765 49.6607 15.1845 49.474L15.6745 50.356C15.3292 50.5893 14.9325 50.7853 14.4845 50.944C14.0365 51.0933 13.5465 51.168 13.0145 51.168ZM22.2911 51.168C21.6004 51.168 21.0544 51.0467 20.6531 50.804C20.2611 50.5613 19.9811 50.2253 19.8131 49.796C19.6451 49.3667 19.5611 48.8673 19.5611 48.298V45.274H17.6851V44.238L19.6171 44.154L19.7991 41.998H20.9471V44.154H24.1811V45.274H20.9471V48.298C20.9471 48.6807 20.9984 49.0073 21.1011 49.278C21.2037 49.5393 21.3764 49.7353 21.6191 49.866C21.8617 49.9873 22.1884 50.048 22.5991 50.048C22.9071 50.048 23.1871 50.0247 23.4391 49.978C23.6911 49.922 23.9337 49.852 24.1671 49.768L24.4471 50.776C24.1391 50.8787 23.8077 50.9673 23.4531 51.042C23.1077 51.126 22.7204 51.168 22.2911 51.168ZM28.5576 51.168C28.1189 51.168 27.7223 51.0887 27.3676 50.93C27.0223 50.762 26.7469 50.5333 26.5416 50.244C26.3456 49.9453 26.2476 49.5953 26.2476 49.194C26.2476 48.4287 26.6209 47.8453 27.3676 47.444C28.1236 47.0427 29.3603 46.7767 31.0776 46.646C31.0683 46.366 31.0029 46.1093 30.8816 45.876C30.7696 45.6427 30.5876 45.4607 30.3356 45.33C30.0929 45.19 29.7709 45.12 29.3696 45.12C29.0896 45.12 28.8143 45.1573 28.5436 45.232C28.2729 45.2973 28.0116 45.3907 27.7596 45.512C27.5076 45.6333 27.2696 45.7593 27.0456 45.89L26.5276 44.952C26.7796 44.8027 27.0689 44.6533 27.3956 44.504C27.7223 44.3453 28.0723 44.2193 28.4456 44.126C28.8283 44.0327 29.2156 43.986 29.6076 43.986C30.2423 43.986 30.7696 44.1027 31.1896 44.336C31.6096 44.5693 31.9269 44.9007 32.1416 45.33C32.3563 45.7593 32.4636 46.2773 32.4636 46.884V51H31.3296L31.2176 50.118H31.1756C30.8116 50.398 30.4009 50.6453 29.9436 50.86C29.4863 51.0653 29.0243 51.168 28.5576 51.168ZM28.9496 50.062C29.3136 50.062 29.6729 49.9827 30.0276 49.824C30.3823 49.6653 30.7323 49.4413 31.0776 49.152V47.528C30.1816 47.5933 29.4769 47.696 28.9636 47.836C28.4596 47.976 28.1049 48.1533 27.8996 48.368C27.6943 48.5733 27.5916 48.816 27.5916 49.096C27.5916 49.32 27.6523 49.5067 27.7736 49.656C27.9043 49.796 28.0723 49.8987 28.2776 49.964C28.4829 50.0293 28.7069 50.062 28.9496 50.062ZM37.3161 51.168C36.4295 51.168 35.7155 50.8553 35.1741 50.23C34.6328 49.5953 34.3621 48.7133 34.3621 47.584C34.3621 46.8467 34.5068 46.212 34.7961 45.68C35.0948 45.1387 35.4775 44.7233 35.9441 44.434C36.4108 44.1353 36.9055 43.986 37.4281 43.986C37.8295 43.986 38.1888 44.0607 38.5061 44.21C38.8235 44.3593 39.1175 44.5693 39.3881 44.84H39.4301L39.3601 43.622V41.074H40.7461V51H39.6121L39.5001 50.16H39.4581C39.1875 50.4307 38.8655 50.6687 38.4921 50.874C38.1188 51.07 37.7268 51.168 37.3161 51.168ZM37.6381 50.02C37.9461 50.02 38.2401 49.9453 38.5201 49.796C38.8095 49.6373 39.0895 49.404 39.3601 49.096V45.848C39.0895 45.596 38.8188 45.4187 38.5481 45.316C38.2775 45.204 38.0068 45.148 37.7361 45.148C37.3815 45.148 37.0548 45.246 36.7561 45.442C36.4668 45.638 36.2335 45.918 36.0561 46.282C35.8788 46.646 35.7901 47.0753 35.7901 47.57C35.7901 48.354 35.9535 48.9607 36.2801 49.39C36.6068 49.81 37.0595 50.02 37.6381 50.02ZM45.3467 51.168C44.908 51.168 44.5113 51.0887 44.1567 50.93C43.8113 50.762 43.536 50.5333 43.3307 50.244C43.1347 49.9453 43.0367 49.5953 43.0367 49.194C43.0367 48.4287 43.41 47.8453 44.1567 47.444C44.9127 47.0427 46.1493 46.7767 47.8667 46.646C47.8573 46.366 47.792 46.1093 47.6707 45.876C47.5587 45.6427 47.3767 45.4607 47.1247 45.33C46.882 45.19 46.56 45.12 46.1587 45.12C45.8787 45.12 45.6033 45.1573 45.3327 45.232C45.062 45.2973 44.8007 45.3907 44.5487 45.512C44.2967 45.6333 44.0587 45.7593 43.8347 45.89L43.3167 44.952C43.5687 44.8027 43.858 44.6533 44.1847 44.504C44.5113 44.3453 44.8613 44.2193 45.2347 44.126C45.6173 44.0327 46.0047 43.986 46.3967 43.986C47.0313 43.986 47.5587 44.1027 47.9787 44.336C48.3987 44.5693 48.716 44.9007 48.9307 45.33C49.1453 45.7593 49.2527 46.2773 49.2527 46.884V51H48.1187L48.0067 50.118H47.9647C47.6007 50.398 47.19 50.6453 46.7327 50.86C46.2753 51.0653 45.8133 51.168 45.3467 51.168ZM45.7387 50.062C46.1027 50.062 46.462 49.9827 46.8167 49.824C47.1713 49.6653 47.5213 49.4413 47.8667 49.152V47.528C46.9707 47.5933 46.266 47.696 45.7527 47.836C45.2487 47.976 44.894 48.1533 44.6887 48.368C44.4833 48.5733 44.3807 48.816 44.3807 49.096C44.3807 49.32 44.4413 49.5067 44.5627 49.656C44.6933 49.796 44.8613 49.8987 45.0667 49.964C45.272 50.0293 45.496 50.062 45.7387 50.062ZM55.8692 51.168C55.1785 51.168 54.6325 51.0467 54.2312 50.804C53.8392 50.5613 53.5592 50.2253 53.3912 49.796C53.2232 49.3667 53.1392 48.8673 53.1392 48.298V45.274H51.2632V44.238L53.1952 44.154L53.3772 41.998H54.5252V44.154H57.7592V45.274H54.5252V48.298C54.5252 48.6807 54.5765 49.0073 54.6792 49.278C54.7819 49.5393 54.9545 49.7353 55.1972 49.866C55.4399 49.9873 55.7665 50.048 56.1772 50.048C56.4852 50.048 56.7652 50.0247 57.0172 49.978C57.2692 49.922 57.5119 49.852 57.7452 49.768L58.0252 50.776C57.7172 50.8787 57.3859 50.9673 57.0312 51.042C56.6859 51.126 56.2985 51.168 55.8692 51.168ZM62.1357 51.168C61.6971 51.168 61.3004 51.0887 60.9457 50.93C60.6004 50.762 60.3251 50.5333 60.1197 50.244C59.9237 49.9453 59.8257 49.5953 59.8257 49.194C59.8257 48.4287 60.1991 47.8453 60.9457 47.444C61.7017 47.0427 62.9384 46.7767 64.6557 46.646C64.6464 46.366 64.5811 46.1093 64.4597 45.876C64.3477 45.6427 64.1657 45.4607 63.9137 45.33C63.6711 45.19 63.3491 45.12 62.9477 45.12C62.6677 45.12 62.3924 45.1573 62.1217 45.232C61.8511 45.2973 61.5897 45.3907 61.3377 45.512C61.0857 45.6333 60.8477 45.7593 60.6237 45.89L60.1057 44.952C60.3577 44.8027 60.6471 44.6533 60.9737 44.504C61.3004 44.3453 61.6504 44.2193 62.0237 44.126C62.4064 44.0327 62.7937 43.986 63.1857 43.986C63.8204 43.986 64.3477 44.1027 64.7677 44.336C65.1877 44.5693 65.5051 44.9007 65.7197 45.33C65.9344 45.7593 66.0417 46.2773 66.0417 46.884V51H64.9077L64.7957 50.118H64.7537C64.3897 50.398 63.9791 50.6453 63.5217 50.86C63.0644 51.0653 62.6024 51.168 62.1357 51.168ZM62.5277 50.062C62.8917 50.062 63.2511 49.9827 63.6057 49.824C63.9604 49.6653 64.3104 49.4413 64.6557 49.152V47.528C63.7597 47.5933 63.0551 47.696 62.5417 47.836C62.0377 47.976 61.6831 48.1533 61.4777 48.368C61.2724 48.5733 61.1697 48.816 61.1697 49.096C61.1697 49.32 61.2304 49.5067 61.3517 49.656C61.4824 49.796 61.6504 49.8987 61.8557 49.964C62.0611 50.0293 62.2851 50.062 62.5277 50.062ZM71.3563 46.282C71.0016 46.282 70.7029 46.1607 70.4603 45.918C70.2176 45.6753 70.0963 45.3627 70.0963 44.98C70.0963 44.5973 70.2176 44.2847 70.4603 44.042C70.7029 43.7993 71.0016 43.678 71.3563 43.678C71.7203 43.678 72.0189 43.7993 72.2523 44.042C72.4949 44.2847 72.6163 44.5973 72.6163 44.98C72.6163 45.3627 72.4949 45.6753 72.2523 45.918C72.0189 46.1607 71.7203 46.282 71.3563 46.282ZM71.3563 51.168C71.0016 51.168 70.7029 51.0467 70.4603 50.804C70.2176 50.5613 70.0963 50.2487 70.0963 49.866C70.0963 49.4833 70.2176 49.1707 70.4603 48.928C70.7029 48.6853 71.0016 48.564 71.3563 48.564C71.7203 48.564 72.0189 48.6853 72.2523 48.928C72.4949 49.1707 72.6163 49.4833 72.6163 49.866C72.6163 50.2487 72.4949 50.5613 72.2523 50.804C72.0189 51.0467 71.7203 51.168 71.3563 51.168ZM18.0211 71V64.154H19.1551L19.2671 65.26H19.3231C19.6684 64.9053 20.0417 64.6067 20.4431 64.364C20.8444 64.112 21.3111 63.986 21.8431 63.986C22.6364 63.986 23.2197 64.2287 23.5931 64.714C23.9757 65.19 24.1671 65.8713 24.1671 66.758V71H22.7811V66.94C22.7811 66.3427 22.6691 65.904 22.4451 65.624C22.2304 65.3347 21.8664 65.19 21.3531 65.19C20.9891 65.19 20.6624 65.2833 20.3731 65.47C20.0837 65.6473 19.7617 65.918 19.4071 66.282V71H18.0211ZM28.5576 71.168C28.1189 71.168 27.7223 71.0887 27.3676 70.93C27.0223 70.762 26.7469 70.5333 26.5416 70.244C26.3456 69.9453 26.2476 69.5953 26.2476 69.194C26.2476 68.4287 26.6209 67.8453 27.3676 67.444C28.1236 67.0427 29.3603 66.7767 31.0776 66.646C31.0683 66.366 31.0029 66.1093 30.8816 65.876C30.7696 65.6427 30.5876 65.4607 30.3356 65.33C30.0929 65.19 29.7709 65.12 29.3696 65.12C29.0896 65.12 28.8143 65.1573 28.5436 65.232C28.2729 65.2973 28.0116 65.3907 27.7596 65.512C27.5076 65.6333 27.2696 65.7593 27.0456 65.89L26.5276 64.952C26.7796 64.8027 27.0689 64.6533 27.3956 64.504C27.7223 64.3453 28.0723 64.2193 28.4456 64.126C28.8283 64.0327 29.2156 63.986 29.6076 63.986C30.2423 63.986 30.7696 64.1027 31.1896 64.336C31.6096 64.5693 31.9269 64.9007 32.1416 65.33C32.3563 65.7593 32.4636 66.2773 32.4636 66.884V71H31.3296L31.2176 70.118H31.1756C30.8116 70.398 30.4009 70.6453 29.9436 70.86C29.4863 71.0653 29.0243 71.168 28.5576 71.168ZM28.9496 70.062C29.3136 70.062 29.6729 69.9827 30.0276 69.824C30.3823 69.6653 30.7323 69.4413 31.0776 69.152V67.528C30.1816 67.5933 29.4769 67.696 28.9636 67.836C28.4596 67.976 28.1049 68.1533 27.8996 68.368C27.6943 68.5733 27.5916 68.816 27.5916 69.096C27.5916 69.32 27.6523 69.5067 27.7736 69.656C27.9043 69.796 28.0723 69.8987 28.2776 69.964C28.4829 70.0293 28.7069 70.062 28.9496 70.062ZM34.3061 71V64.154H35.3981L35.5101 65.05H35.5381C35.7061 64.742 35.9068 64.49 36.1401 64.294C36.3735 64.0887 36.6861 63.986 37.0781 63.986C37.4048 63.986 37.6755 64.084 37.8901 64.28C38.1048 64.476 38.2541 64.77 38.3381 65.162C38.5248 64.8073 38.7348 64.5227 38.9681 64.308C39.2108 64.0933 39.5281 63.986 39.9201 63.986C40.4055 63.986 40.7788 64.1727 41.0401 64.546C41.3108 64.9193 41.4461 65.4467 41.4461 66.128V71H40.0881V66.226C40.0881 65.526 39.8781 65.176 39.4581 65.176C39.2528 65.176 39.0801 65.2553 38.9401 65.414C38.8001 65.5727 38.6461 65.8107 38.4781 66.128V71H37.2741V66.226C37.2741 65.8807 37.2228 65.6193 37.1201 65.442C37.0268 65.2647 36.8728 65.176 36.6581 65.176C36.4528 65.176 36.2708 65.2553 36.1121 65.414C35.9628 65.5727 35.8135 65.8107 35.6641 66.128V71H34.3061ZM46.5927 71.168C45.902 71.168 45.272 71.028 44.7027 70.748C44.1427 70.468 43.6993 70.0573 43.3727 69.516C43.046 68.9747 42.8827 68.326 42.8827 67.57C42.8827 66.8233 43.046 66.184 43.3727 65.652C43.7087 65.12 44.1427 64.7093 44.6747 64.42C45.2067 64.1307 45.776 63.986 46.3827 63.986C47.0547 63.986 47.624 64.126 48.0907 64.406C48.5573 64.6767 48.912 65.0547 49.1547 65.54C49.4067 66.016 49.5327 66.576 49.5327 67.22C49.5327 67.36 49.528 67.5 49.5187 67.64C49.5093 67.7707 49.4953 67.8827 49.4767 67.976H43.8487V66.954H48.6087L48.3007 67.29C48.3007 66.5527 48.1327 66.002 47.7967 65.638C47.4607 65.2647 47.0033 65.078 46.4247 65.078C46.0233 65.078 45.6547 65.176 45.3187 65.372C44.992 65.5587 44.7307 65.8387 44.5347 66.212C44.3387 66.576 44.2407 67.0287 44.2407 67.57C44.2407 68.13 44.348 68.5967 44.5627 68.97C44.7867 69.334 45.0853 69.6093 45.4587 69.796C45.8413 69.9827 46.28 70.076 46.7747 70.076C47.1573 70.076 47.5073 70.0247 47.8247 69.922C48.142 69.81 48.4547 69.6607 48.7627 69.474L49.2527 70.356C48.9073 70.5893 48.5107 70.7853 48.0627 70.944C47.6147 71.0933 47.1247 71.168 46.5927 71.168ZM54.5672 66.282C54.2125 66.282 53.9139 66.1607 53.6712 65.918C53.4285 65.6753 53.3072 65.3627 53.3072 64.98C53.3072 64.5973 53.4285 64.2847 53.6712 64.042C53.9139 63.7993 54.2125 63.678 54.5672 63.678C54.9312 63.678 55.2299 63.7993 55.4632 64.042C55.7059 64.2847 55.8272 64.5973 55.8272 64.98C55.8272 65.3627 55.7059 65.6753 55.4632 65.918C55.2299 66.1607 54.9312 66.282 54.5672 66.282ZM54.5672 71.168C54.2125 71.168 53.9139 71.0467 53.6712 70.804C53.4285 70.5613 53.3072 70.2487 53.3072 69.866C53.3072 69.4833 53.4285 69.1707 53.6712 68.928C53.9139 68.6853 54.2125 68.564 54.5672 68.564C54.9312 68.564 55.2299 68.6853 55.4632 68.928C55.7059 69.1707 55.8272 69.4833 55.8272 69.866C55.8272 70.2487 55.7059 70.5613 55.4632 70.804C55.2299 71.0467 54.9312 71.168 54.5672 71.168ZM22.4311 91.168C21.6751 91.168 21.0964 90.9487 20.6951 90.51C20.2937 90.062 20.0931 89.4273 20.0931 88.606V82.194H17.8111V81.074H21.4791V88.69C21.4791 89.166 21.6004 89.5113 21.8431 89.726C22.0857 89.9313 22.3891 90.034 22.7531 90.034C22.9397 90.034 23.1311 90.0107 23.3271 89.964C23.5324 89.9173 23.7564 89.8427 23.9991 89.74L24.3351 90.776C24.0084 90.888 23.7051 90.9813 23.4251 91.056C23.1544 91.1307 22.8231 91.168 22.4311 91.168ZM28.5576 91.168C28.1189 91.168 27.7223 91.0887 27.3676 90.93C27.0223 90.762 26.7469 90.5333 26.5416 90.244C26.3456 89.9453 26.2476 89.5953 26.2476 89.194C26.2476 88.4287 26.6209 87.8453 27.3676 87.444C28.1236 87.0427 29.3603 86.7767 31.0776 86.646C31.0683 86.366 31.0029 86.1093 30.8816 85.876C30.7696 85.6427 30.5876 85.4607 30.3356 85.33C30.0929 85.19 29.7709 85.12 29.3696 85.12C29.0896 85.12 28.8143 85.1573 28.5436 85.232C28.2729 85.2973 28.0116 85.3907 27.7596 85.512C27.5076 85.6333 27.2696 85.7593 27.0456 85.89L26.5276 84.952C26.7796 84.8027 27.0689 84.6533 27.3956 84.504C27.7223 84.3453 28.0723 84.2193 28.4456 84.126C28.8283 84.0327 29.2156 83.986 29.6076 83.986C30.2423 83.986 30.7696 84.1027 31.1896 84.336C31.6096 84.5693 31.9269 84.9007 32.1416 85.33C32.3563 85.7593 32.4636 86.2773 32.4636 86.884V91H31.3296L31.2176 90.118H31.1756C30.8116 90.398 30.4009 90.6453 29.9436 90.86C29.4863 91.0653 29.0243 91.168 28.5576 91.168ZM28.9496 90.062C29.3136 90.062 29.6729 89.9827 30.0276 89.824C30.3823 89.6653 30.7323 89.4413 31.0776 89.152V87.528C30.1816 87.5933 29.4769 87.696 28.9636 87.836C28.4596 87.976 28.1049 88.1533 27.8996 88.368C27.6943 88.5733 27.5916 88.816 27.5916 89.096C27.5916 89.32 27.6523 89.5067 27.7736 89.656C27.9043 89.796 28.0723 89.8987 28.2776 89.964C28.4829 90.0293 28.7069 90.062 28.9496 90.062ZM38.1281 91.168C37.7921 91.168 37.4421 91.0887 37.0781 90.93C36.7141 90.762 36.3781 90.5333 36.0701 90.244H36.0281L35.9021 91H34.8101V81.074H36.1961V83.706L36.1401 84.966H36.1821C36.4808 84.6673 36.8215 84.4293 37.2041 84.252C37.5961 84.0747 37.9835 83.986 38.3661 83.986C38.9728 83.986 39.4861 84.1307 39.9061 84.42C40.3261 84.7093 40.6435 85.1153 40.8581 85.638C41.0821 86.1513 41.1941 86.7627 41.1941 87.472C41.1941 88.2467 41.0495 88.914 40.7601 89.474C40.4708 90.0247 40.0928 90.4447 39.6261 90.734C39.1688 91.0233 38.6695 91.168 38.1281 91.168ZM37.8621 90.02C38.2261 90.02 38.5481 89.922 38.8281 89.726C39.1175 89.53 39.3461 89.2453 39.5141 88.872C39.6821 88.4893 39.7661 88.0273 39.7661 87.486C39.7661 87.01 39.7008 86.5993 39.5701 86.254C39.4488 85.8993 39.2621 85.6287 39.0101 85.442C38.7581 85.246 38.4221 85.148 38.0021 85.148C37.7221 85.148 37.4281 85.2227 37.1201 85.372C36.8121 85.512 36.5041 85.7453 36.1961 86.072V89.306C36.4855 89.558 36.7795 89.74 37.0781 89.852C37.3768 89.964 37.6381 90.02 37.8621 90.02ZM46.5927 91.168C45.902 91.168 45.272 91.028 44.7027 90.748C44.1427 90.468 43.6993 90.0573 43.3727 89.516C43.046 88.9747 42.8827 88.326 42.8827 87.57C42.8827 86.8233 43.046 86.184 43.3727 85.652C43.7087 85.12 44.1427 84.7093 44.6747 84.42C45.2067 84.1307 45.776 83.986 46.3827 83.986C47.0547 83.986 47.624 84.126 48.0907 84.406C48.5573 84.6767 48.912 85.0547 49.1547 85.54C49.4067 86.016 49.5327 86.576 49.5327 87.22C49.5327 87.36 49.528 87.5 49.5187 87.64C49.5093 87.7707 49.4953 87.8827 49.4767 87.976H43.8487V86.954H48.6087L48.3007 87.29C48.3007 86.5527 48.1327 86.002 47.7967 85.638C47.4607 85.2647 47.0033 85.078 46.4247 85.078C46.0233 85.078 45.6547 85.176 45.3187 85.372C44.992 85.5587 44.7307 85.8387 44.5347 86.212C44.3387 86.576 44.2407 87.0287 44.2407 87.57C44.2407 88.13 44.348 88.5967 44.5627 88.97C44.7867 89.334 45.0853 89.6093 45.4587 89.796C45.8413 89.9827 46.28 90.076 46.7747 90.076C47.1573 90.076 47.5073 90.0247 47.8247 89.922C48.142 89.81 48.4547 89.6607 48.7627 89.474L49.2527 90.356C48.9073 90.5893 48.5107 90.7853 48.0627 90.944C47.6147 91.0933 47.1247 91.168 46.5927 91.168ZM56.0092 91.168C55.2532 91.168 54.6745 90.9487 54.2732 90.51C53.8719 90.062 53.6712 89.4273 53.6712 88.606V82.194H51.3892V81.074H55.0572V88.69C55.0572 89.166 55.1785 89.5113 55.4212 89.726C55.6639 89.9313 55.9672 90.034 56.3312 90.034C56.5179 90.034 56.7092 90.0107 56.9052 89.964C57.1105 89.9173 57.3345 89.8427 57.5772 89.74L57.9132 90.776C57.5865 90.888 57.2832 90.9813 57.0032 91.056C56.7325 91.1307 56.4012 91.168 56.0092 91.168ZM63.0457 91.168C62.4017 91.168 61.7857 91.0607 61.1977 90.846C60.6097 90.6313 60.1104 90.384 59.6997 90.104L60.3157 89.208C60.7171 89.488 61.1511 89.7073 61.6177 89.866C62.0937 90.0247 62.6304 90.104 63.2277 90.104C63.7504 90.104 64.1377 90.0107 64.3897 89.824C64.6511 89.6373 64.7817 89.418 64.7817 89.166C64.7817 89.0447 64.7537 88.9327 64.6977 88.83C64.6511 88.7273 64.5577 88.634 64.4177 88.55C64.2871 88.4567 64.0864 88.368 63.8157 88.284C63.5544 88.2 63.2091 88.1113 62.7797 88.018C61.8744 87.8313 61.2024 87.5747 60.7637 87.248C60.3344 86.9213 60.1197 86.5013 60.1197 85.988C60.1197 85.4093 60.3671 84.9333 60.8617 84.56C61.3657 84.1773 62.0937 83.986 63.0457 83.986C63.5871 83.986 64.1004 84.0793 64.5857 84.266C65.0804 84.4433 65.5004 84.6487 65.8457 84.882L65.2017 85.75C64.8751 85.5353 64.5157 85.3673 64.1237 85.246C63.7411 85.1153 63.3397 85.05 62.9197 85.05C62.5744 85.05 62.2991 85.092 62.0937 85.176C61.8884 85.2507 61.7391 85.3533 61.6457 85.484C61.5524 85.6147 61.5057 85.7593 61.5057 85.918C61.5057 86.1793 61.6504 86.3847 61.9397 86.534C62.2384 86.674 62.7191 86.814 63.3817 86.954C64.1284 87.1127 64.7024 87.29 65.1037 87.486C65.5144 87.682 65.7944 87.9107 65.9437 88.172C66.1024 88.424 66.1817 88.7273 66.1817 89.082C66.1817 89.4647 66.0604 89.8147 65.8177 90.132C65.5751 90.4493 65.2204 90.7013 64.7537 90.888C64.2964 91.0747 63.7271 91.168 63.0457 91.168ZM71.3563 86.282C71.0016 86.282 70.7029 86.1607 70.4603 85.918C70.2176 85.6753 70.0963 85.3627 70.0963 84.98C70.0963 84.5973 70.2176 84.2847 70.4603 84.042C70.7029 83.7993 71.0016 83.678 71.3563 83.678C71.7203 83.678 72.0189 83.7993 72.2523 84.042C72.4949 84.2847 72.6163 84.5973 72.6163 84.98C72.6163 85.3627 72.4949 85.6753 72.2523 85.918C72.0189 86.1607 71.7203 86.282 71.3563 86.282ZM71.3563 91.168C71.0016 91.168 70.7029 91.0467 70.4603 90.804C70.2176 90.5613 70.0963 90.2487 70.0963 89.866C70.0963 89.4833 70.2176 89.1707 70.4603 88.928C70.7029 88.6853 71.0016 88.564 71.3563 88.564C71.7203 88.564 72.0189 88.6853 72.2523 88.928C72.4949 89.1707 72.6163 89.4833 72.6163 89.866C72.6163 90.2487 72.4949 90.5613 72.2523 90.804C72.0189 91.0467 71.7203 91.168 71.3563 91.168ZM36.9521 111.168C36.5135 111.168 36.1168 111.089 35.7621 110.93C35.4168 110.762 35.1415 110.533 34.9361 110.244C34.7401 109.945 34.6421 109.595 34.6421 109.194C34.6421 108.429 35.0155 107.845 35.7621 107.444C36.5181 107.043 37.7548 106.777 39.4721 106.646C39.4628 106.366 39.3975 106.109 39.2761 105.876C39.1641 105.643 38.9821 105.461 38.7301 105.33C38.4875 105.19 38.1655 105.12 37.7641 105.12C37.4841 105.12 37.2088 105.157 36.9381 105.232C36.6675 105.297 36.4061 105.391 36.1541 105.512C35.9021 105.633 35.6641 105.759 35.4401 105.89L34.9221 104.952C35.1741 104.803 35.4635 104.653 35.7901 104.504C36.1168 104.345 36.4668 104.219 36.8401 104.126C37.2228 104.033 37.6101 103.986 38.0021 103.986C38.6368 103.986 39.1641 104.103 39.5841 104.336C40.0041 104.569 40.3215 104.901 40.5361 105.33C40.7508 105.759 40.8581 106.277 40.8581 106.884V111H39.7241L39.6121 110.118H39.5701C39.2061 110.398 38.7955 110.645 38.3381 110.86C37.8808 111.065 37.4188 111.168 36.9521 111.168ZM37.3441 110.062C37.7081 110.062 38.0675 109.983 38.4221 109.824C38.7768 109.665 39.1268 109.441 39.4721 109.152V107.528C38.5761 107.593 37.8715 107.696 37.3581 107.836C36.8541 107.976 36.4995 108.153 36.2941 108.368C36.0888 108.573 35.9861 108.816 35.9861 109.096C35.9861 109.32 36.0468 109.507 36.1681 109.656C36.2988 109.796 36.4668 109.899 36.6721 109.964C36.8775 110.029 37.1015 110.062 37.3441 110.062ZM43.2047 113.8V104.154H44.3387L44.4507 104.994H44.4927C44.8007 104.705 45.1553 104.467 45.5567 104.28C45.958 104.084 46.364 103.986 46.7747 103.986C47.3813 103.986 47.89 104.131 48.3007 104.42C48.7207 104.709 49.038 105.115 49.2527 105.638C49.4767 106.161 49.5887 106.772 49.5887 107.472C49.5887 108.256 49.444 108.923 49.1547 109.474C48.8653 110.025 48.4873 110.445 48.0207 110.734C47.554 111.023 47.05 111.168 46.5087 111.168C46.2007 111.168 45.8693 111.093 45.5147 110.944C45.1693 110.795 44.852 110.589 44.5627 110.328H44.5207L44.5907 111.56V113.8H43.2047ZM46.2427 110.02C46.6067 110.02 46.9333 109.922 47.2227 109.726C47.512 109.53 47.7407 109.245 47.9087 108.872C48.0767 108.489 48.1607 108.027 48.1607 107.486C48.1607 107.01 48.0953 106.599 47.9647 106.254C47.8433 105.899 47.6567 105.629 47.4047 105.442C47.1527 105.246 46.8167 105.148 46.3967 105.148C46.1167 105.148 45.8227 105.223 45.5147 105.372C45.2067 105.512 44.8987 105.745 44.5907 106.072V109.306C44.88 109.558 45.174 109.74 45.4727 109.852C45.7713 109.964 46.028 110.02 46.2427 110.02ZM51.5992 113.8V104.154H52.7332L52.8452 104.994H52.8872C53.1952 104.705 53.5499 104.467 53.9512 104.28C54.3525 104.084 54.7585 103.986 55.1692 103.986C55.7759 103.986 56.2845 104.131 56.6952 104.42C57.1152 104.709 57.4325 105.115 57.6472 105.638C57.8712 106.161 57.9832 106.772 57.9832 107.472C57.9832 108.256 57.8385 108.923 57.5492 109.474C57.2599 110.025 56.8819 110.445 56.4152 110.734C55.9485 111.023 55.4445 111.168 54.9032 111.168C54.5952 111.168 54.2639 111.093 53.9092 110.944C53.5639 110.795 53.2465 110.589 52.9572 110.328H52.9152L52.9852 111.56V113.8H51.5992ZM54.6372 110.02C55.0012 110.02 55.3279 109.922 55.6172 109.726C55.9065 109.53 56.1352 109.245 56.3032 108.872C56.4712 108.489 56.5552 108.027 56.5552 107.486C56.5552 107.01 56.4899 106.599 56.3592 106.254C56.2379 105.899 56.0512 105.629 55.7992 105.442C55.5472 105.246 55.2112 105.148 54.7912 105.148C54.5112 105.148 54.2172 105.223 53.9092 105.372C53.6012 105.512 53.2932 105.745 52.9852 106.072V109.306C53.2745 109.558 53.5685 109.74 53.8672 109.852C54.1659 109.964 54.4225 110.02 54.6372 110.02ZM62.9617 106.282C62.6071 106.282 62.3084 106.161 62.0657 105.918C61.8231 105.675 61.7017 105.363 61.7017 104.98C61.7017 104.597 61.8231 104.285 62.0657 104.042C62.3084 103.799 62.6071 103.678 62.9617 103.678C63.3257 103.678 63.6244 103.799 63.8577 104.042C64.1004 104.285 64.2217 104.597 64.2217 104.98C64.2217 105.363 64.1004 105.675 63.8577 105.918C63.6244 106.161 63.3257 106.282 62.9617 106.282ZM62.9617 111.168C62.6071 111.168 62.3084 111.047 62.0657 110.804C61.8231 110.561 61.7017 110.249 61.7017 109.866C61.7017 109.483 61.8231 109.171 62.0657 108.928C62.3084 108.685 62.6071 108.564 62.9617 108.564C63.3257 108.564 63.6244 108.685 63.8577 108.928C64.1004 109.171 64.2217 109.483 64.2217 109.866C64.2217 110.249 64.1004 110.561 63.8577 110.804C63.6244 111.047 63.3257 111.168 62.9617 111.168Z" fill="#218D46"/>
<path d="M104.108 11.168C103.67 11.168 103.273 11.0887 102.918 10.93C102.573 10.762 102.298 10.5333 102.092 10.244C101.896 9.94533 101.798 9.59533 101.798 9.194C101.798 8.42867 102.172 7.84533 102.918 7.444C103.674 7.04267 104.911 6.77667 106.628 6.646C106.619 6.366 106.554 6.10933 106.432 5.876C106.32 5.64267 106.138 5.46067 105.886 5.33C105.644 5.19 105.322 5.12 104.92 5.12C104.64 5.12 104.365 5.15733 104.094 5.232C103.824 5.29733 103.562 5.39067 103.31 5.512C103.058 5.63333 102.82 5.75933 102.596 5.89L102.078 4.952C102.33 4.80267 102.62 4.65333 102.946 4.504C103.273 4.34533 103.623 4.21933 103.996 4.126C104.379 4.03267 104.766 3.986 105.158 3.986C105.793 3.986 106.32 4.10267 106.74 4.336C107.16 4.56933 107.478 4.90067 107.692 5.33C107.907 5.75933 108.014 6.27733 108.014 6.884V11H106.88L106.768 10.118H106.726C106.362 10.398 105.952 10.6453 105.494 10.86C105.037 11.0653 104.575 11.168 104.108 11.168ZM104.5 10.062C104.864 10.062 105.224 9.98267 105.578 9.824C105.933 9.66533 106.283 9.44133 106.628 9.152V7.528C105.732 7.59333 105.028 7.696 104.514 7.836C104.01 7.976 103.656 8.15333 103.45 8.368C103.245 8.57333 103.142 8.816 103.142 9.096C103.142 9.32 103.203 9.50667 103.324 9.656C103.455 9.796 103.623 9.89867 103.828 9.964C104.034 10.0293 104.258 10.062 104.5 10.062ZM110.361 13.8V4.154H111.495L111.607 4.994H111.649C111.957 4.70467 112.312 4.46667 112.713 4.28C113.114 4.084 113.52 3.986 113.931 3.986C114.538 3.986 115.046 4.13067 115.457 4.42C115.877 4.70933 116.194 5.11533 116.409 5.638C116.633 6.16067 116.745 6.772 116.745 7.472C116.745 8.256 116.6 8.92333 116.311 9.474C116.022 10.0247 115.644 10.4447 115.177 10.734C114.71 11.0233 114.206 11.168 113.665 11.168C113.357 11.168 113.026 11.0933 112.671 10.944C112.326 10.7947 112.008 10.5893 111.719 10.328H111.677L111.747 11.56V13.8H110.361ZM113.399 10.02C113.763 10.02 114.09 9.922 114.379 9.726C114.668 9.53 114.897 9.24533 115.065 8.872C115.233 8.48933 115.317 8.02733 115.317 7.486C115.317 7.01 115.252 6.59933 115.121 6.254C115 5.89933 114.813 5.62867 114.561 5.442C114.309 5.246 113.973 5.148 113.553 5.148C113.273 5.148 112.979 5.22267 112.671 5.372C112.363 5.512 112.055 5.74533 111.747 6.072V9.306C112.036 9.558 112.33 9.74 112.629 9.852C112.928 9.964 113.184 10.02 113.399 10.02ZM118.755 13.8V4.154H119.889L120.001 4.994H120.043C120.351 4.70467 120.706 4.46667 121.107 4.28C121.509 4.084 121.915 3.986 122.325 3.986C122.932 3.986 123.441 4.13067 123.851 4.42C124.271 4.70933 124.589 5.11533 124.803 5.638C125.027 6.16067 125.139 6.772 125.139 7.472C125.139 8.256 124.995 8.92333 124.705 9.474C124.416 10.0247 124.038 10.4447 123.571 10.734C123.105 11.0233 122.601 11.168 122.059 11.168C121.751 11.168 121.42 11.0933 121.065 10.944C120.72 10.7947 120.403 10.5893 120.113 10.328H120.071L120.141 11.56V13.8H118.755ZM121.793 10.02C122.157 10.02 122.484 9.922 122.773 9.726C123.063 9.53 123.291 9.24533 123.459 8.872C123.627 8.48933 123.711 8.02733 123.711 7.486C123.711 7.01 123.646 6.59933 123.515 6.254C123.394 5.89933 123.207 5.62867 122.955 5.442C122.703 5.246 122.367 5.148 121.947 5.148C121.667 5.148 121.373 5.22267 121.065 5.372C120.757 5.512 120.449 5.74533 120.141 6.072V9.306C120.431 9.558 120.725 9.74 121.023 9.852C121.322 9.964 121.579 10.02 121.793 10.02ZM130.202 11.168C129.558 11.168 128.942 11.0607 128.354 10.846C127.766 10.6313 127.267 10.384 126.856 10.104L127.472 9.208C127.873 9.488 128.307 9.70733 128.774 9.866C129.25 10.0247 129.787 10.104 130.384 10.104C130.907 10.104 131.294 10.0107 131.546 9.824C131.807 9.63733 131.938 9.418 131.938 9.166C131.938 9.04467 131.91 8.93267 131.854 8.83C131.807 8.72733 131.714 8.634 131.574 8.55C131.443 8.45667 131.243 8.368 130.972 8.284C130.711 8.2 130.365 8.11133 129.936 8.018C129.031 7.83133 128.359 7.57467 127.92 7.248C127.491 6.92133 127.276 6.50133 127.276 5.988C127.276 5.40933 127.523 4.93333 128.018 4.56C128.522 4.17733 129.25 3.986 130.202 3.986C130.743 3.986 131.257 4.07933 131.742 4.266C132.237 4.44333 132.657 4.64867 133.002 4.882L132.358 5.75C132.031 5.53533 131.672 5.36733 131.28 5.246C130.897 5.11533 130.496 5.05 130.076 5.05C129.731 5.05 129.455 5.092 129.25 5.176C129.045 5.25067 128.895 5.35333 128.802 5.484C128.709 5.61467 128.662 5.75933 128.662 5.918C128.662 6.17933 128.807 6.38467 129.096 6.534C129.395 6.674 129.875 6.814 130.538 6.954C131.285 7.11267 131.859 7.29 132.26 7.486C132.671 7.682 132.951 7.91067 133.1 8.172C133.259 8.424 133.338 8.72733 133.338 9.082C133.338 9.46467 133.217 9.81467 132.974 10.132C132.731 10.4493 132.377 10.7013 131.91 10.888C131.453 11.0747 130.883 11.168 130.202 11.168ZM135.615 13.24L140.207 1.06H141.411L136.819 13.24H135.615ZM146.151 11L143.351 4.154H144.751L146.193 7.878C146.324 8.214 146.45 8.55467 146.571 8.9C146.692 9.236 146.809 9.572 146.921 9.908H146.977C147.098 9.572 147.215 9.236 147.327 8.9C147.439 8.55467 147.56 8.214 147.691 7.878L149.133 4.154H150.463L147.719 11H146.151ZM152.404 11V9.866H154.924V3.65H152.936V2.782C153.3 2.726 153.617 2.66533 153.888 2.6C154.168 2.53467 154.42 2.46 154.644 2.376C154.877 2.292 155.092 2.194 155.288 2.082H156.31V9.866H158.564V11H152.404ZM51.5292 31V21.83H53.8532C54.7679 21.83 55.5425 22.0027 56.1772 22.348C56.8212 22.6933 57.3112 23.2067 57.6472 23.888C57.9832 24.56 58.1512 25.3907 58.1512 26.38C58.1512 27.3693 57.9832 28.2093 57.6472 28.9C57.3112 29.5907 56.8305 30.1133 56.2052 30.468C55.5799 30.8227 54.8192 31 53.9232 31H51.5292ZM52.9292 29.866H53.7692C54.4132 29.866 54.9499 29.7353 55.3792 29.474C55.8179 29.2033 56.1492 28.8113 56.3732 28.298C56.5972 27.7847 56.7092 27.1453 56.7092 26.38C56.7092 25.6147 56.5972 24.98 56.3732 24.476C56.1492 23.972 55.8179 23.594 55.3792 23.342C54.9499 23.09 54.4132 22.964 53.7692 22.964H52.9292V29.866ZM63.3817 31.168C62.6911 31.168 62.0611 31.028 61.4917 30.748C60.9317 30.468 60.4884 30.0573 60.1617 29.516C59.8351 28.9747 59.6717 28.326 59.6717 27.57C59.6717 26.8233 59.8351 26.184 60.1617 25.652C60.4977 25.12 60.9317 24.7093 61.4637 24.42C61.9957 24.1307 62.5651 23.986 63.1717 23.986C63.8437 23.986 64.4131 24.126 64.8797 24.406C65.3464 24.6767 65.7011 25.0547 65.9437 25.54C66.1957 26.016 66.3217 26.576 66.3217 27.22C66.3217 27.36 66.3171 27.5 66.3077 27.64C66.2984 27.7707 66.2844 27.8827 66.2657 27.976H60.6377V26.954H65.3977L65.0897 27.29C65.0897 26.5527 64.9217 26.002 64.5857 25.638C64.2497 25.2647 63.7924 25.078 63.2137 25.078C62.8124 25.078 62.4437 25.176 62.1077 25.372C61.7811 25.5587 61.5197 25.8387 61.3237 26.212C61.1277 26.576 61.0297 27.0287 61.0297 27.57C61.0297 28.13 61.1371 28.5967 61.3517 28.97C61.5757 29.334 61.8744 29.6093 62.2477 29.796C62.6304 29.9827 63.0691 30.076 63.5637 30.076C63.9464 30.076 64.2964 30.0247 64.6137 29.922C64.9311 29.81 65.2437 29.6607 65.5517 29.474L66.0417 30.356C65.6964 30.5893 65.2997 30.7853 64.8517 30.944C64.4037 31.0933 63.9137 31.168 63.3817 31.168ZM68.3883 33.8V24.154H69.5223L69.6343 24.994H69.6763C69.9843 24.7047 70.3389 24.4667 70.7403 24.28C71.1416 24.084 71.5476 23.986 71.9583 23.986C72.5649 23.986 73.0736 24.1307 73.4843 24.42C73.9043 24.7093 74.2216 25.1153 74.4363 25.638C74.6603 26.1607 74.7723 26.772 74.7723 27.472C74.7723 28.256 74.6276 28.9233 74.3383 29.474C74.0489 30.0247 73.6709 30.4447 73.2043 30.734C72.7376 31.0233 72.2336 31.168 71.6923 31.168C71.3843 31.168 71.0529 31.0933 70.6983 30.944C70.3529 30.7947 70.0356 30.5893 69.7463 30.328H69.7043L69.7743 31.56V33.8H68.3883ZM71.4263 30.02C71.7903 30.02 72.1169 29.922 72.4063 29.726C72.6956 29.53 72.9243 29.2453 73.0923 28.872C73.2603 28.4893 73.3443 28.0273 73.3443 27.486C73.3443 27.01 73.2789 26.5993 73.1483 26.254C73.0269 25.8993 72.8403 25.6287 72.5883 25.442C72.3363 25.246 72.0003 25.148 71.5803 25.148C71.3003 25.148 71.0063 25.2227 70.6983 25.372C70.3903 25.512 70.0823 25.7453 69.7743 26.072V29.306C70.0636 29.558 70.3576 29.74 70.6562 29.852C70.9549 29.964 71.2116 30.02 71.4263 30.02ZM81.1928 31.168C80.4368 31.168 79.8581 30.9487 79.4568 30.51C79.0554 30.062 78.8548 29.4273 78.8548 28.606V22.194H76.5728V21.074H80.2408V28.69C80.2408 29.166 80.3621 29.5113 80.6048 29.726C80.8474 29.9313 81.1508 30.034 81.5148 30.034C81.7014 30.034 81.8928 30.0107 82.0888 29.964C82.2941 29.9173 82.5181 29.8427 82.7608 29.74L83.0968 30.776C82.7701 30.888 82.4668 30.9813 82.1868 31.056C81.9161 31.1307 81.5848 31.168 81.1928 31.168ZM88.1453 31.168C87.548 31.168 86.988 31.028 86.4653 30.748C85.952 30.468 85.532 30.062 85.2053 29.53C84.888 28.9887 84.7293 28.34 84.7293 27.584C84.7293 26.828 84.888 26.184 85.2053 25.652C85.532 25.1107 85.952 24.7 86.4653 24.42C86.988 24.1307 87.548 23.986 88.1453 23.986C88.7426 23.986 89.298 24.1307 89.8113 24.42C90.334 24.7 90.754 25.1107 91.0713 25.652C91.398 26.184 91.5613 26.828 91.5613 27.584C91.5613 28.34 91.398 28.9887 91.0713 29.53C90.754 30.062 90.334 30.468 89.8113 30.748C89.298 31.028 88.7426 31.168 88.1453 31.168ZM88.1453 30.034C88.5466 30.034 88.8966 29.9313 89.1953 29.726C89.494 29.5207 89.7226 29.236 89.8813 28.872C90.0493 28.508 90.1333 28.0787 90.1333 27.584C90.1333 27.0987 90.0493 26.674 89.8813 26.31C89.7226 25.9367 89.494 25.6473 89.1953 25.442C88.8966 25.2367 88.5466 25.134 88.1453 25.134C87.744 25.134 87.394 25.2367 87.0953 25.442C86.7966 25.6473 86.5633 25.9367 86.3953 26.31C86.2366 26.674 86.1573 27.0987 86.1573 27.584C86.1573 28.0787 86.2366 28.508 86.3953 28.872C86.5633 29.236 86.7966 29.5207 87.0953 29.726C87.394 29.9313 87.744 30.034 88.1453 30.034ZM94.2158 33.87C94.0478 33.87 93.8798 33.856 93.7118 33.828C93.5438 33.8 93.3992 33.7673 93.2778 33.73L93.5578 32.652C93.6418 32.68 93.7352 32.7033 93.8378 32.722C93.9405 32.7407 94.0432 32.75 94.1458 32.75C94.6032 32.75 94.9718 32.624 95.2518 32.372C95.5318 32.12 95.7512 31.8073 95.9098 31.434L96.0918 30.958L92.9698 24.154H94.3558L95.8958 27.724C96.0172 28.032 96.1432 28.3587 96.2738 28.704C96.4138 29.04 96.5538 29.3807 96.6938 29.726H96.7498C96.8618 29.3993 96.9785 29.0633 97.0998 28.718C97.2212 28.3633 97.3378 28.032 97.4498 27.724L98.8078 24.154H100.124L97.1978 31.434C97.0205 31.9193 96.8012 32.344 96.5398 32.708C96.2785 33.072 95.9565 33.3567 95.5738 33.562C95.2005 33.7673 94.7478 33.87 94.2158 33.87ZM101.462 31V24.154H102.554L102.666 25.05H102.694C102.862 24.742 103.063 24.49 103.296 24.294C103.53 24.0887 103.842 23.986 104.234 23.986C104.561 23.986 104.832 24.084 105.046 24.28C105.261 24.476 105.41 24.77 105.494 25.162C105.681 24.8073 105.891 24.5227 106.124 24.308C106.367 24.0933 106.684 23.986 107.076 23.986C107.562 23.986 107.935 24.1727 108.196 24.546C108.467 24.9193 108.602 25.4467 108.602 26.128V31H107.244V26.226C107.244 25.526 107.034 25.176 106.614 25.176C106.409 25.176 106.236 25.2553 106.096 25.414C105.956 25.5727 105.802 25.8107 105.634 26.128V31H104.43V26.226C104.43 25.8807 104.379 25.6193 104.276 25.442C104.183 25.2647 104.029 25.176 103.814 25.176C103.609 25.176 103.427 25.2553 103.268 25.414C103.119 25.5727 102.97 25.8107 102.82 26.128V31H101.462ZM113.749 31.168C113.058 31.168 112.428 31.028 111.859 30.748C111.299 30.468 110.856 30.0573 110.529 29.516C110.202 28.9747 110.039 28.326 110.039 27.57C110.039 26.8233 110.202 26.184 110.529 25.652C110.865 25.12 111.299 24.7093 111.831 24.42C112.363 24.1307 112.932 23.986 113.539 23.986C114.211 23.986 114.78 24.126 115.247 24.406C115.714 24.6767 116.068 25.0547 116.311 25.54C116.563 26.016 116.689 26.576 116.689 27.22C116.689 27.36 116.684 27.5 116.675 27.64C116.666 27.7707 116.652 27.8827 116.633 27.976H111.005V26.954H115.765L115.457 27.29C115.457 26.5527 115.289 26.002 114.953 25.638C114.617 25.2647 114.16 25.078 113.581 25.078C113.18 25.078 112.811 25.176 112.475 25.372C112.148 25.5587 111.887 25.8387 111.691 26.212C111.495 26.576 111.397 27.0287 111.397 27.57C111.397 28.13 111.504 28.5967 111.719 28.97C111.943 29.334 112.242 29.6093 112.615 29.796C112.998 29.9827 113.436 30.076 113.931 30.076C114.314 30.076 114.664 30.0247 114.981 29.922C115.298 29.81 115.611 29.6607 115.919 29.474L116.409 30.356C116.064 30.5893 115.667 30.7853 115.219 30.944C114.771 31.0933 114.281 31.168 113.749 31.168ZM118.755 31V24.154H119.889L120.001 25.26H120.057C120.403 24.9053 120.776 24.6067 121.177 24.364C121.579 24.112 122.045 23.986 122.577 23.986C123.371 23.986 123.954 24.2287 124.327 24.714C124.71 25.19 124.901 25.8713 124.901 26.758V31H123.515V26.94C123.515 26.3427 123.403 25.904 123.179 25.624C122.965 25.3347 122.601 25.19 122.087 25.19C121.723 25.19 121.397 25.2833 121.107 25.47C120.818 25.6473 120.496 25.918 120.141 26.282V31H118.755ZM131.42 31.168C130.729 31.168 130.183 31.0467 129.782 30.804C129.39 30.5613 129.11 30.2253 128.942 29.796C128.774 29.3667 128.69 28.8673 128.69 28.298V25.274H126.814V24.238L128.746 24.154L128.928 21.998H130.076V24.154H133.31V25.274H130.076V28.298C130.076 28.6807 130.127 29.0073 130.23 29.278C130.333 29.5393 130.505 29.7353 130.748 29.866C130.991 29.9873 131.317 30.048 131.728 30.048C132.036 30.048 132.316 30.0247 132.568 29.978C132.82 29.922 133.063 29.852 133.296 29.768L133.576 30.776C133.268 30.8787 132.937 30.9673 132.582 31.042C132.237 31.126 131.849 31.168 131.42 31.168ZM67.8843 71V64.154H68.9763L69.0883 65.05H69.1163C69.2843 64.742 69.4849 64.49 69.7183 64.294C69.9516 64.0887 70.2643 63.986 70.6562 63.986C70.9829 63.986 71.2536 64.084 71.4683 64.28C71.6829 64.476 71.8323 64.77 71.9163 65.162C72.1029 64.8073 72.3129 64.5227 72.5463 64.308C72.7889 64.0933 73.1063 63.986 73.4983 63.986C73.9836 63.986 74.3569 64.1727 74.6183 64.546C74.8889 64.9193 75.0243 65.4467 75.0243 66.128V71H73.6663V66.226C73.6663 65.526 73.4563 65.176 73.0363 65.176C72.8309 65.176 72.6583 65.2553 72.5183 65.414C72.3783 65.5727 72.2243 65.8107 72.0563 66.128V71H70.8522V66.226C70.8522 65.8807 70.8009 65.6193 70.6983 65.442C70.6049 65.2647 70.4509 65.176 70.2363 65.176C70.0309 65.176 69.8489 65.2553 69.6903 65.414C69.5409 65.5727 69.3916 65.8107 69.2423 66.128V71H67.8843ZM77.4268 73.87C77.2588 73.87 77.0908 73.856 76.9228 73.828C76.7548 73.8 76.6101 73.7673 76.4888 73.73L76.7688 72.652C76.8528 72.68 76.9461 72.7033 77.0488 72.722C77.1514 72.7407 77.2541 72.75 77.3568 72.75C77.8141 72.75 78.1828 72.624 78.4628 72.372C78.7428 72.12 78.9621 71.8073 79.1208 71.434L79.3028 70.958L76.1808 64.154H77.5668L79.1068 67.724C79.2281 68.032 79.3541 68.3587 79.4848 68.704C79.6248 69.04 79.7648 69.3807 79.9048 69.726H79.9608C80.0728 69.3993 80.1894 69.0633 80.3108 68.718C80.4321 68.3633 80.5488 68.032 80.6608 67.724L82.0188 64.154H83.3348L80.4088 71.434C80.2314 71.9193 80.0121 72.344 79.7508 72.708C79.4894 73.072 79.1674 73.3567 78.7848 73.562C78.4114 73.7673 77.9588 73.87 77.4268 73.87ZM84.7853 73.044V71.91H91.5053V73.044H84.7853ZM95.7138 71.168C95.2752 71.168 94.8785 71.0887 94.5238 70.93C94.1785 70.762 93.9032 70.5333 93.6978 70.244C93.5018 69.9453 93.4038 69.5953 93.4038 69.194C93.4038 68.4287 93.7772 67.8453 94.5238 67.444C95.2798 67.0427 96.5165 66.7767 98.2338 66.646C98.2245 66.366 98.1592 66.1093 98.0378 65.876C97.9258 65.6427 97.7438 65.4607 97.4918 65.33C97.2492 65.19 96.9272 65.12 96.5258 65.12C96.2458 65.12 95.9705 65.1573 95.6998 65.232C95.4292 65.2973 95.1678 65.3907 94.9158 65.512C94.6638 65.6333 94.4258 65.7593 94.2018 65.89L93.6838 64.952C93.9358 64.8027 94.2252 64.6533 94.5518 64.504C94.8785 64.3453 95.2285 64.2193 95.6018 64.126C95.9845 64.0327 96.3718 63.986 96.7638 63.986C97.3985 63.986 97.9258 64.1027 98.3458 64.336C98.7658 64.5693 99.0832 64.9007 99.2978 65.33C99.5125 65.7593 99.6198 66.2773 99.6198 66.884V71H98.4858L98.3738 70.118H98.3318C97.9678 70.398 97.5572 70.6453 97.0998 70.86C96.6425 71.0653 96.1805 71.168 95.7138 71.168ZM96.1058 70.062C96.4698 70.062 96.8292 69.9827 97.1838 69.824C97.5385 69.6653 97.8885 69.4413 98.2338 69.152V67.528C97.3378 67.5933 96.6332 67.696 96.1198 67.836C95.6158 67.976 95.2612 68.1533 95.0558 68.368C94.8505 68.5733 94.7478 68.816 94.7478 69.096C94.7478 69.32 94.8085 69.5067 94.9298 69.656C95.0605 69.796 95.2285 69.8987 95.4338 69.964C95.6392 70.0293 95.8632 70.062 96.1058 70.062ZM101.966 73.8V64.154H103.1L103.212 64.994H103.254C103.562 64.7047 103.917 64.4667 104.318 64.28C104.72 64.084 105.126 63.986 105.536 63.986C106.143 63.986 106.652 64.1307 107.062 64.42C107.482 64.7093 107.8 65.1153 108.014 65.638C108.238 66.1607 108.35 66.772 108.35 67.472C108.35 68.256 108.206 68.9233 107.916 69.474C107.627 70.0247 107.249 70.4447 106.782 70.734C106.316 71.0233 105.812 71.168 105.27 71.168C104.962 71.168 104.631 71.0933 104.276 70.944C103.931 70.7947 103.614 70.5893 103.324 70.328H103.282L103.352 71.56V73.8H101.966ZM105.004 70.02C105.368 70.02 105.695 69.922 105.984 69.726C106.274 69.53 106.502 69.2453 106.67 68.872C106.838 68.4893 106.922 68.0273 106.922 67.486C106.922 67.01 106.857 66.5993 106.726 66.254C106.605 65.8993 106.418 65.6287 106.166 65.442C105.914 65.246 105.578 65.148 105.158 65.148C104.878 65.148 104.584 65.2227 104.276 65.372C103.968 65.512 103.66 65.7453 103.352 66.072V69.306C103.642 69.558 103.936 69.74 104.234 69.852C104.533 69.964 104.79 70.02 105.004 70.02ZM110.361 73.8V64.154H111.495L111.607 64.994H111.649C111.957 64.7047 112.312 64.4667 112.713 64.28C113.114 64.084 113.52 63.986 113.931 63.986C114.538 63.986 115.046 64.1307 115.457 64.42C115.877 64.7093 116.194 65.1153 116.409 65.638C116.633 66.1607 116.745 66.772 116.745 67.472C116.745 68.256 116.6 68.9233 116.311 69.474C116.022 70.0247 115.644 70.4447 115.177 70.734C114.71 71.0233 114.206 71.168 113.665 71.168C113.357 71.168 113.026 71.0933 112.671 70.944C112.326 70.7947 112.008 70.5893 111.719 70.328H111.677L111.747 71.56V73.8H110.361ZM113.399 70.02C113.763 70.02 114.09 69.922 114.379 69.726C114.668 69.53 114.897 69.2453 115.065 68.872C115.233 68.4893 115.317 68.0273 115.317 67.486C115.317 67.01 115.252 66.5993 115.121 66.254C115 65.8993 114.813 65.6287 114.561 65.442C114.309 65.246 113.973 65.148 113.553 65.148C113.273 65.148 112.979 65.2227 112.671 65.372C112.363 65.512 112.055 65.7453 111.747 66.072V69.306C112.036 69.558 112.33 69.74 112.629 69.852C112.928 69.964 113.184 70.02 113.399 70.02ZM118.657 66.884V65.876H124.789V66.884H118.657ZM129.656 71.168C128.769 71.168 128.055 70.8553 127.514 70.23C126.973 69.5953 126.702 68.7133 126.702 67.584C126.702 66.8467 126.847 66.212 127.136 65.68C127.435 65.1387 127.817 64.7233 128.284 64.434C128.751 64.1353 129.245 63.986 129.768 63.986C130.169 63.986 130.529 64.0607 130.846 64.21C131.163 64.3593 131.457 64.5693 131.728 64.84H131.77L131.7 63.622V61.074H133.086V71H131.952L131.84 70.16H131.798C131.527 70.4307 131.205 70.6687 130.832 70.874C130.459 71.07 130.067 71.168 129.656 71.168ZM129.978 70.02C130.286 70.02 130.58 69.9453 130.86 69.796C131.149 69.6373 131.429 69.404 131.7 69.096V65.848C131.429 65.596 131.159 65.4187 130.888 65.316C130.617 65.204 130.347 65.148 130.076 65.148C129.721 65.148 129.395 65.246 129.096 65.442C128.807 65.638 128.573 65.918 128.396 66.282C128.219 66.646 128.13 67.0753 128.13 67.57C128.13 68.354 128.293 68.9607 128.62 69.39C128.947 69.81 129.399 70.02 129.978 70.02ZM138.933 71.168C138.242 71.168 137.612 71.028 137.043 70.748C136.483 70.468 136.039 70.0573 135.713 69.516C135.386 68.9747 135.223 68.326 135.223 67.57C135.223 66.8233 135.386 66.184 135.713 65.652C136.049 65.12 136.483 64.7093 137.015 64.42C137.547 64.1307 138.116 63.986 138.723 63.986C139.395 63.986 139.964 64.126 140.431 64.406C140.897 64.6767 141.252 65.0547 141.495 65.54C141.747 66.016 141.873 66.576 141.873 67.22C141.873 67.36 141.868 67.5 141.859 67.64C141.849 67.7707 141.835 67.8827 141.817 67.976H136.189V66.954H140.949L140.641 67.29C140.641 66.5527 140.473 66.002 140.137 65.638C139.801 65.2647 139.343 65.078 138.765 65.078C138.363 65.078 137.995 65.176 137.659 65.372C137.332 65.5587 137.071 65.8387 136.875 66.212C136.679 66.576 136.581 67.0287 136.581 67.57C136.581 68.13 136.688 68.5967 136.903 68.97C137.127 69.334 137.425 69.6093 137.799 69.796C138.181 69.9827 138.62 70.076 139.115 70.076C139.497 70.076 139.847 70.0247 140.165 69.922C140.482 69.81 140.795 69.6607 141.103 69.474L141.593 70.356C141.247 70.5893 140.851 70.7853 140.403 70.944C139.955 71.0933 139.465 71.168 138.933 71.168ZM143.939 73.8V64.154H145.073L145.185 64.994H145.227C145.535 64.7047 145.89 64.4667 146.291 64.28C146.692 64.084 147.098 63.986 147.509 63.986C148.116 63.986 148.624 64.1307 149.035 64.42C149.455 64.7093 149.772 65.1153 149.987 65.638C150.211 66.1607 150.323 66.772 150.323 67.472C150.323 68.256 150.178 68.9233 149.889 69.474C149.6 70.0247 149.222 70.4447 148.755 70.734C148.288 71.0233 147.784 71.168 147.243 71.168C146.935 71.168 146.604 71.0933 146.249 70.944C145.904 70.7947 145.586 70.5893 145.297 70.328H145.255L145.325 71.56V73.8H143.939ZM146.977 70.02C147.341 70.02 147.668 69.922 147.957 69.726C148.246 69.53 148.475 69.2453 148.643 68.872C148.811 68.4893 148.895 68.0273 148.895 67.486C148.895 67.01 148.83 66.5993 148.699 66.254C148.578 65.8993 148.391 65.6287 148.139 65.442C147.887 65.246 147.551 65.148 147.131 65.148C146.851 65.148 146.557 65.2227 146.249 65.372C145.941 65.512 145.633 65.7453 145.325 66.072V69.306C145.614 69.558 145.908 69.74 146.207 69.852C146.506 69.964 146.762 70.02 146.977 70.02ZM156.744 71.168C155.988 71.168 155.409 70.9487 155.008 70.51C154.606 70.062 154.406 69.4273 154.406 68.606V62.194H152.124V61.074H155.792V68.69C155.792 69.166 155.913 69.5113 156.156 69.726C156.398 69.9313 156.702 70.034 157.066 70.034C157.252 70.034 157.444 70.0107 157.64 69.964C157.845 69.9173 158.069 69.8427 158.312 69.74L158.648 70.776C158.321 70.888 158.018 70.9813 157.738 71.056C157.467 71.1307 157.136 71.168 156.744 71.168ZM163.696 71.168C163.099 71.168 162.539 71.028 162.016 70.748C161.503 70.468 161.083 70.062 160.756 69.53C160.439 68.9887 160.28 68.34 160.28 67.584C160.28 66.828 160.439 66.184 160.756 65.652C161.083 65.1107 161.503 64.7 162.016 64.42C162.539 64.1307 163.099 63.986 163.696 63.986C164.293 63.986 164.849 64.1307 165.362 64.42C165.885 64.7 166.305 65.1107 166.622 65.652C166.949 66.184 167.112 66.828 167.112 67.584C167.112 68.34 166.949 68.9887 166.622 69.53C166.305 70.062 165.885 70.468 165.362 70.748C164.849 71.028 164.293 71.168 163.696 71.168ZM163.696 70.034C164.097 70.034 164.447 69.9313 164.746 69.726C165.045 69.5207 165.273 69.236 165.432 68.872C165.6 68.508 165.684 68.0787 165.684 67.584C165.684 67.0987 165.6 66.674 165.432 66.31C165.273 65.9367 165.045 65.6473 164.746 65.442C164.447 65.2367 164.097 65.134 163.696 65.134C163.295 65.134 162.945 65.2367 162.646 65.442C162.347 65.6473 162.114 65.9367 161.946 66.31C161.787 66.674 161.708 67.0987 161.708 67.584C161.708 68.0787 161.787 68.508 161.946 68.872C162.114 69.236 162.347 69.5207 162.646 69.726C162.945 69.9313 163.295 70.034 163.696 70.034ZM169.767 73.87C169.599 73.87 169.431 73.856 169.263 73.828C169.095 73.8 168.95 73.7673 168.829 73.73L169.109 72.652C169.193 72.68 169.286 72.7033 169.389 72.722C169.491 72.7407 169.594 72.75 169.697 72.75C170.154 72.75 170.523 72.624 170.803 72.372C171.083 72.12 171.302 71.8073 171.461 71.434L171.643 70.958L168.521 64.154H169.907L171.447 67.724C171.568 68.032 171.694 68.3587 171.825 68.704C171.965 69.04 172.105 69.3807 172.245 69.726H172.301C172.413 69.3993 172.529 69.0633 172.651 68.718C172.772 68.3633 172.889 68.032 173.001 67.724L174.359 64.154H175.675L172.749 71.434C172.571 71.9193 172.352 72.344 172.091 72.708C171.829 73.072 171.507 73.3567 171.125 73.562C170.751 73.7673 170.299 73.87 169.767 73.87ZM177.013 71V64.154H178.105L178.217 65.05H178.245C178.413 64.742 178.614 64.49 178.847 64.294C179.08 64.0887 179.393 63.986 179.785 63.986C180.112 63.986 180.382 64.084 180.597 64.28C180.812 64.476 180.961 64.77 181.045 65.162C181.232 64.8073 181.442 64.5227 181.675 64.308C181.918 64.0933 182.235 63.986 182.627 63.986C183.112 63.986 183.486 64.1727 183.747 64.546C184.018 64.9193 184.153 65.4467 184.153 66.128V71H182.795V66.226C182.795 65.526 182.585 65.176 182.165 65.176C181.96 65.176 181.787 65.2553 181.647 65.414C181.507 65.5727 181.353 65.8107 181.185 66.128V71H179.981V66.226C179.981 65.8807 179.93 65.6193 179.827 65.442C179.734 65.2647 179.58 65.176 179.365 65.176C179.16 65.176 178.978 65.2553 178.819 65.414C178.67 65.5727 178.52 65.8107 178.371 66.128V71H177.013ZM189.3 71.168C188.609 71.168 187.979 71.028 187.41 70.748C186.85 70.468 186.406 70.0573 186.08 69.516C185.753 68.9747 185.59 68.326 185.59 67.57C185.59 66.8233 185.753 66.184 186.08 65.652C186.416 65.12 186.85 64.7093 187.382 64.42C187.914 64.1307 188.483 63.986 189.09 63.986C189.762 63.986 190.331 64.126 190.798 64.406C191.264 64.6767 191.619 65.0547 191.862 65.54C192.114 66.016 192.24 66.576 192.24 67.22C192.24 67.36 192.235 67.5 192.226 67.64C192.216 67.7707 192.202 67.8827 192.184 67.976H186.556V66.954H191.316L191.008 67.29C191.008 66.5527 190.84 66.002 190.504 65.638C190.168 65.2647 189.71 65.078 189.132 65.078C188.73 65.078 188.362 65.176 188.026 65.372C187.699 65.5587 187.438 65.8387 187.242 66.212C187.046 66.576 186.948 67.0287 186.948 67.57C186.948 68.13 187.055 68.5967 187.27 68.97C187.494 69.334 187.792 69.6093 188.166 69.796C188.548 69.9827 188.987 70.076 189.482 70.076C189.864 70.076 190.214 70.0247 190.532 69.922C190.849 69.81 191.162 69.6607 191.47 69.474L191.96 70.356C191.614 70.5893 191.218 70.7853 190.77 70.944C190.322 71.0933 189.832 71.168 189.3 71.168ZM194.306 71V64.154H195.44L195.552 65.26H195.608C195.954 64.9053 196.327 64.6067 196.728 64.364C197.13 64.112 197.596 63.986 198.128 63.986C198.922 63.986 199.505 64.2287 199.878 64.714C200.261 65.19 200.452 65.8713 200.452 66.758V71H199.066V66.94C199.066 66.3427 198.954 65.904 198.73 65.624C198.516 65.3347 198.152 65.19 197.638 65.19C197.274 65.19 196.948 65.2833 196.658 65.47C196.369 65.6473 196.047 65.918 195.692 66.282V71H194.306ZM206.971 71.168C206.28 71.168 205.734 71.0467 205.333 70.804C204.941 70.5613 204.661 70.2253 204.493 69.796C204.325 69.3667 204.241 68.8673 204.241 68.298V65.274H202.365V64.238L204.297 64.154L204.479 61.998H205.627V64.154H208.861V65.274H205.627V68.298C205.627 68.6807 205.678 69.0073 205.781 69.278C205.883 69.5393 206.056 69.7353 206.299 69.866C206.541 69.9873 206.868 70.048 207.279 70.048C207.587 70.048 207.867 70.0247 208.119 69.978C208.371 69.922 208.613 69.852 208.847 69.768L209.127 70.776C208.819 70.8787 208.487 70.9673 208.133 71.042C207.787 71.126 207.4 71.168 206.971 71.168ZM76.2788 111V104.154H77.3708L77.4828 105.05H77.5108C77.6788 104.742 77.8794 104.49 78.1128 104.294C78.3461 104.089 78.6588 103.986 79.0508 103.986C79.3774 103.986 79.6481 104.084 79.8628 104.28C80.0774 104.476 80.2268 104.77 80.3108 105.162C80.4974 104.807 80.7074 104.523 80.9408 104.308C81.1834 104.093 81.5008 103.986 81.8928 103.986C82.3781 103.986 82.7514 104.173 83.0128 104.546C83.2834 104.919 83.4188 105.447 83.4188 106.128V111H82.0608V106.226C82.0608 105.526 81.8508 105.176 81.4308 105.176C81.2254 105.176 81.0528 105.255 80.9128 105.414C80.7728 105.573 80.6188 105.811 80.4508 106.128V111H79.2468V106.226C79.2468 105.881 79.1954 105.619 79.0928 105.442C78.9994 105.265 78.8454 105.176 78.6308 105.176C78.4254 105.176 78.2434 105.255 78.0848 105.414C77.9354 105.573 77.7861 105.811 77.6368 106.128V111H76.2788ZM85.8213 113.87C85.6533 113.87 85.4853 113.856 85.3173 113.828C85.1493 113.8 85.0046 113.767 84.8833 113.73L85.1633 112.652C85.2473 112.68 85.3406 112.703 85.4433 112.722C85.546 112.741 85.6486 112.75 85.7513 112.75C86.2086 112.75 86.5773 112.624 86.8573 112.372C87.1373 112.12 87.3566 111.807 87.5153 111.434L87.6973 110.958L84.5753 104.154H85.9613L87.5013 107.724C87.6226 108.032 87.7486 108.359 87.8793 108.704C88.0193 109.04 88.1593 109.381 88.2993 109.726H88.3553C88.4673 109.399 88.584 109.063 88.7053 108.718C88.8266 108.363 88.9433 108.032 89.0553 107.724L90.4133 104.154H91.7293L88.8033 111.434C88.626 111.919 88.4066 112.344 88.1453 112.708C87.884 113.072 87.562 113.357 87.1793 113.562C86.806 113.767 86.3533 113.87 85.8213 113.87ZM93.1798 113.044V111.91H99.8998V113.044H93.1798ZM104.108 111.168C103.67 111.168 103.273 111.089 102.918 110.93C102.573 110.762 102.298 110.533 102.092 110.244C101.896 109.945 101.798 109.595 101.798 109.194C101.798 108.429 102.172 107.845 102.918 107.444C103.674 107.043 104.911 106.777 106.628 106.646C106.619 106.366 106.554 106.109 106.432 105.876C106.32 105.643 106.138 105.461 105.886 105.33C105.644 105.19 105.322 105.12 104.92 105.12C104.64 105.12 104.365 105.157 104.094 105.232C103.824 105.297 103.562 105.391 103.31 105.512C103.058 105.633 102.82 105.759 102.596 105.89L102.078 104.952C102.33 104.803 102.62 104.653 102.946 104.504C103.273 104.345 103.623 104.219 103.996 104.126C104.379 104.033 104.766 103.986 105.158 103.986C105.793 103.986 106.32 104.103 106.74 104.336C107.16 104.569 107.478 104.901 107.692 105.33C107.907 105.759 108.014 106.277 108.014 106.884V111H106.88L106.768 110.118H106.726C106.362 110.398 105.952 110.645 105.494 110.86C105.037 111.065 104.575 111.168 104.108 111.168ZM104.5 110.062C104.864 110.062 105.224 109.983 105.578 109.824C105.933 109.665 106.283 109.441 106.628 109.152V107.528C105.732 107.593 105.028 107.696 104.514 107.836C104.01 107.976 103.656 108.153 103.45 108.368C103.245 108.573 103.142 108.816 103.142 109.096C103.142 109.32 103.203 109.507 103.324 109.656C103.455 109.796 103.623 109.899 103.828 109.964C104.034 110.029 104.258 110.062 104.5 110.062ZM110.361 113.8V104.154H111.495L111.607 104.994H111.649C111.957 104.705 112.312 104.467 112.713 104.28C113.114 104.084 113.52 103.986 113.931 103.986C114.538 103.986 115.046 104.131 115.457 104.42C115.877 104.709 116.194 105.115 116.409 105.638C116.633 106.161 116.745 106.772 116.745 107.472C116.745 108.256 116.6 108.923 116.311 109.474C116.022 110.025 115.644 110.445 115.177 110.734C114.71 111.023 114.206 111.168 113.665 111.168C113.357 111.168 113.026 111.093 112.671 110.944C112.326 110.795 112.008 110.589 111.719 110.328H111.677L111.747 111.56V113.8H110.361ZM113.399 110.02C113.763 110.02 114.09 109.922 114.379 109.726C114.668 109.53 114.897 109.245 115.065 108.872C115.233 108.489 115.317 108.027 115.317 107.486C115.317 107.01 115.252 106.599 115.121 106.254C115 105.899 114.813 105.629 114.561 105.442C114.309 105.246 113.973 105.148 113.553 105.148C113.273 105.148 112.979 105.223 112.671 105.372C112.363 105.512 112.055 105.745 111.747 106.072V109.306C112.036 109.558 112.33 109.74 112.629 109.852C112.928 109.964 113.184 110.02 113.399 110.02ZM118.755 113.8V104.154H119.889L120.001 104.994H120.043C120.351 104.705 120.706 104.467 121.107 104.28C121.509 104.084 121.915 103.986 122.325 103.986C122.932 103.986 123.441 104.131 123.851 104.42C124.271 104.709 124.589 105.115 124.803 105.638C125.027 106.161 125.139 106.772 125.139 107.472C125.139 108.256 124.995 108.923 124.705 109.474C124.416 110.025 124.038 110.445 123.571 110.734C123.105 111.023 122.601 111.168 122.059 111.168C121.751 111.168 121.42 111.093 121.065 110.944C120.72 110.795 120.403 110.589 120.113 110.328H120.071L120.141 111.56V113.8H118.755ZM121.793 110.02C122.157 110.02 122.484 109.922 122.773 109.726C123.063 109.53 123.291 109.245 123.459 108.872C123.627 108.489 123.711 108.027 123.711 107.486C123.711 107.01 123.646 106.599 123.515 106.254C123.394 105.899 123.207 105.629 122.955 105.442C122.703 105.246 122.367 105.148 121.947 105.148C121.667 105.148 121.373 105.223 121.065 105.372C120.757 105.512 120.449 105.745 120.141 106.072V109.306C120.431 109.558 120.725 109.74 121.023 109.852C121.322 109.964 121.579 110.02 121.793 110.02Z" fill="white"/>
</svg>
