<svg width="185" height="96" viewBox="0 0 185 96" fill="none" xmlns="http://www.w3.org/2000/svg">
<path d="M113.939 31.4977C108.111 32.7 107.71 30.7267 107.71 30.7267C113.864 21.5956 116.436 10.005 114.217 7.16823C108.16 -0.569882 97.6764 3.08977 97.5014 3.18463L97.4452 3.19482C96.2936 2.95573 95.0051 2.81345 93.5566 2.78973C90.9196 2.74662 88.9191 3.48114 87.401 4.6323C87.401 4.6323 68.699 -3.0723 69.569 14.3221C69.754 18.0226 74.8729 42.3218 80.9783 34.9823C83.2099 32.2984 85.3662 30.0292 85.3662 30.0292C86.437 30.7406 87.7191 31.1036 89.0631 30.9732L89.1676 30.8847C89.135 31.2178 89.1499 31.5437 89.2093 31.9296C87.6364 33.6869 88.0987 33.9954 84.9545 34.6427C81.7728 35.2984 83.6418 36.4657 84.8622 36.771C86.3416 37.1408 89.7641 37.6648 92.0766 34.4275L91.9845 34.7969C92.6007 35.2906 93.0334 38.0076 92.9609 40.4708C92.8884 42.9338 92.84 44.6249 93.3254 45.9458C93.8112 47.2667 94.2951 50.2387 98.4286 49.353C101.882 48.6128 103.672 46.6948 103.921 43.4953C104.098 41.2208 104.498 41.5571 104.523 39.5235L104.844 38.5608C105.213 35.4775 104.902 34.4828 107.03 34.9455L107.548 34.9909C109.113 35.0621 111.163 34.7389 112.366 34.1798C114.957 32.9777 116.493 30.9703 113.939 31.4977H113.939Z" fill="#336791"/>
<path d="M88.495 15.9768C87.9698 15.9037 87.4941 15.9713 87.2535 16.1536C87.1182 16.2561 87.0763 16.3748 87.0649 16.4566C87.0348 16.6731 87.1864 16.9126 87.2797 17.0361C87.5435 17.3857 87.9288 17.626 88.3102 17.6789C88.3654 17.6867 88.4205 17.6902 88.4752 17.6902C89.1111 17.6902 89.6895 17.195 89.7404 16.8295C89.8041 16.3717 89.1395 16.0664 88.495 15.9768ZM105.895 15.9913C105.844 15.6325 105.206 15.5302 104.6 15.6145C103.995 15.6987 103.408 15.9719 103.457 16.3315C103.496 16.6112 104.001 17.0886 104.599 17.0886C104.649 17.0886 104.7 17.0853 104.752 17.078C105.151 17.0227 105.444 16.7693 105.583 16.6233C105.794 16.4007 105.917 16.1526 105.895 15.9913Z" fill="white"/>
<path d="M115.878 31.3611C115.656 30.6891 114.941 30.473 113.753 30.7183C110.224 31.4466 108.96 30.9421 108.545 30.6366C111.288 26.4584 113.544 21.4077 114.762 16.6955C115.338 14.4633 115.657 12.3903 115.683 10.7006C115.712 8.84603 115.396 7.48322 114.744 6.65071C112.118 3.29462 108.263 1.49439 103.597 1.445C100.389 1.40894 97.6784 2.22988 97.153 2.46074C96.0465 2.18559 94.8403 2.01666 93.527 1.9951C91.1189 1.9561 89.0372 2.53267 87.3138 3.70793C86.5652 3.42926 84.6305 2.76509 82.2645 2.38392C78.1741 1.72544 74.9236 2.2244 72.604 3.86765C69.8363 5.82859 68.5585 9.33382 68.806 14.2857C68.8893 15.9517 69.8386 21.0769 71.3367 25.9851C73.3086 32.4453 75.4522 36.1024 77.7074 36.8547C77.9714 36.9427 78.2758 37.0043 78.6115 37.0043C79.4342 37.0043 80.4429 36.6335 81.4923 35.3718C82.7724 33.8362 84.0965 32.3379 85.463 30.8788C86.3496 31.3547 87.3236 31.6204 88.3197 31.6471C88.3217 31.6731 88.3243 31.6992 88.3266 31.7251C88.1551 31.9295 87.9872 32.137 87.8229 32.3473C87.1327 33.2235 86.9891 33.4059 84.7673 33.8633C84.1353 33.9939 82.4567 34.3398 82.432 35.5164C82.4054 36.802 84.4163 37.3419 84.6454 37.3991C85.4438 37.599 86.213 37.6976 86.9465 37.6976C88.7305 37.6976 90.3005 37.1113 91.5551 35.9767C91.5165 40.5598 91.7076 45.0759 92.2579 46.4519C92.7086 47.5783 93.8096 50.3312 97.2874 50.331C97.7977 50.331 98.3594 50.2716 98.9773 50.1391C102.607 49.3611 104.183 47.7569 104.793 44.2201C105.119 42.3299 105.679 37.8164 105.942 35.3953C106.498 35.5687 107.214 35.6481 107.987 35.6479C109.601 35.6479 111.462 35.3051 112.63 34.7633C113.941 34.1542 116.308 32.6597 115.878 31.3611ZM107.235 15.001C107.223 15.7158 107.124 16.3646 107.02 17.0419C106.908 17.7704 106.792 18.5235 106.763 19.4377C106.734 20.3275 106.845 21.2525 106.952 22.1471C107.169 23.954 107.392 25.8142 106.53 27.6497C106.387 27.3959 106.259 27.1335 106.148 26.8641C106.04 26.6042 105.808 26.1868 105.485 25.609C104.231 23.36 101.295 18.0934 102.798 15.9443C103.246 15.3046 104.382 14.6469 107.235 15.001ZM103.777 2.89228C107.958 2.98459 111.265 4.54867 113.607 7.54083C115.403 9.83591 113.425 20.2789 107.7 29.2881C107.642 29.2149 107.585 29.1419 107.526 29.0692L107.454 28.9786C108.933 26.5354 108.644 24.118 108.387 21.9749C108.281 21.0953 108.181 20.2646 108.206 19.4842C108.232 18.6572 108.342 17.9477 108.448 17.2618C108.578 16.4166 108.71 15.5419 108.673 14.5109C108.701 14.4027 108.712 14.275 108.697 14.1233C108.604 13.1346 107.475 10.1755 105.175 7.49733C103.916 6.03241 102.081 4.39307 99.5748 3.28737C100.653 3.06396 102.127 2.85563 103.777 2.89228ZM80.3817 34.4483C79.2255 35.8386 78.4271 35.5721 78.1645 35.4847C76.4536 34.914 74.4684 31.2978 72.7181 25.5636C71.2036 20.6018 70.3186 15.6125 70.2484 14.2134C70.0273 9.78868 71.0999 6.70499 73.4365 5.04782C77.2393 2.35119 83.4913 3.96525 86.0035 4.78384C85.9674 4.81951 85.9298 4.85283 85.8941 4.88908C81.7716 9.05239 81.8694 16.1655 81.8796 16.6004C81.8792 16.7682 81.8933 17.0057 81.9125 17.3324C81.9834 18.5288 82.1155 20.7555 81.7628 23.2771C81.4351 25.6204 82.1575 27.9139 83.7443 29.5697C83.9071 29.7393 84.0783 29.9007 84.2572 30.0534C83.5509 30.8098 82.0158 32.4827 80.3817 34.4483ZM84.7871 28.5704C83.5081 27.2358 82.9273 25.3795 83.1932 23.477C83.5656 20.8133 83.4282 18.4933 83.3543 17.2469C83.3439 17.0725 83.3347 16.9197 83.3294 16.7991C83.9316 16.2651 86.7225 14.7698 88.7129 15.2258C89.621 15.4338 90.1745 16.0523 90.4045 17.116C91.5953 22.6235 90.5621 24.919 89.7319 26.7637C89.5609 27.1437 89.3992 27.5029 89.2612 27.8745L89.1542 28.1618C88.8834 28.8881 88.6313 29.5634 88.4752 30.2047C87.1155 30.2007 85.7928 29.6199 84.7871 28.5702V28.5704ZM84.9958 35.9979C84.5987 35.8988 84.2417 35.7265 84.0322 35.5836C84.2072 35.5013 84.5186 35.3892 85.0587 35.2779C87.6724 34.7399 88.0761 34.3601 88.9576 33.2409C89.1597 32.9842 89.3888 32.6934 89.7061 32.339L89.7065 32.3387C90.179 31.8095 90.3951 31.8993 90.7871 32.0619C91.1048 32.1932 91.4142 32.5915 91.5396 33.0297C91.599 33.2366 91.6656 33.6293 91.4475 33.9351C89.6061 36.5133 86.9228 36.4802 84.9958 35.9979ZM98.6747 48.7269C95.4772 49.4121 94.345 47.7806 93.5989 45.9155C93.1174 44.7114 92.8807 39.2817 93.0486 33.2854C93.0508 33.2056 93.0394 33.1286 93.0175 33.0561C92.9978 32.9129 92.968 32.7713 92.9281 32.6324C92.6784 31.7599 92.0699 31.0301 91.3399 30.7275C91.0499 30.6074 90.5176 30.3869 89.8779 30.5506C90.0143 29.9885 90.2509 29.3537 90.5074 28.6665L90.615 28.3774C90.7361 28.0515 90.8882 27.7138 91.0489 27.3564C91.9177 25.4264 93.1074 22.7829 91.8162 16.8109C91.3325 14.574 89.7172 13.4816 87.2687 13.7354C85.8009 13.8873 84.4578 14.4796 83.788 14.8192C83.644 14.8921 83.5123 14.9626 83.3892 15.0312C83.5761 12.7775 84.2824 8.56559 86.9246 5.90071C88.5882 4.22315 90.8037 3.39457 93.5031 3.43925C98.8219 3.52626 102.233 6.25582 104.158 8.53051C105.816 10.4905 106.714 12.4649 107.073 13.5299C104.377 13.2557 102.544 13.7878 101.615 15.1165C99.5927 18.0067 102.721 23.6163 104.224 26.3124C104.5 26.8064 104.738 27.2335 104.812 27.415C105.302 28.6014 105.936 29.3935 106.399 29.9717C106.54 30.1488 106.678 30.3207 106.783 30.4708C105.966 30.7062 104.5 31.25 104.633 33.9684C104.526 35.3324 103.759 41.7185 103.37 43.9747C102.856 46.9555 101.759 48.0657 98.6747 48.7271V48.7269ZM112.021 33.4534C111.187 33.8408 109.79 34.1314 108.462 34.194C106.996 34.2625 106.25 34.0297 106.075 33.8865C105.992 32.1925 106.623 32.0155 107.29 31.8281C107.395 31.7987 107.497 31.7699 107.596 31.7354C107.657 31.7854 107.725 31.835 107.798 31.8836C108.976 32.6612 111.078 32.7451 114.045 32.1327L114.077 32.1262C113.677 32.5003 112.992 33.0024 112.021 33.4534Z" fill="white"/>
<g clip-path="url(#clip0_76_355)">
<path d="M48.1562 81.293C48.3468 83.0746 49.9673 86.1287 54.6702 86.1287C58.7691 86.1287 60.7395 83.52 60.7395 80.9749C60.7395 78.6843 59.1823 76.8073 56.1002 76.171L53.8757 75.6938C53.0179 75.5348 52.446 75.0576 52.446 74.294C52.446 73.4032 53.3356 72.7352 54.4479 72.7352C56.2271 72.7352 56.8945 73.9123 57.0217 74.8349L60.5487 74.0395C60.3582 72.3534 58.8645 69.522 54.4161 69.522C51.0478 69.522 48.5694 71.8444 48.5694 74.644C48.5694 76.8391 49.9355 78.6525 52.9543 79.3206L55.0198 79.7978C56.2271 80.0523 56.7039 80.625 56.7039 81.3249C56.7039 82.152 56.0366 82.8837 54.6384 82.8837C52.7955 82.8837 51.8738 81.7384 51.7787 80.4977L48.1562 81.293Z" fill="white"/>
<path d="M74.2444 85.6516H78.28C78.2164 85.1108 78.121 84.0291 78.121 82.8202V69.9993H73.8945V79.098C73.8945 80.9114 72.8144 82.1839 70.9397 82.1839C68.9696 82.1839 68.0796 80.7841 68.0796 79.0344V69.9993H63.8535V79.8934C63.8535 83.2974 66.0141 86.0652 69.7956 86.0652C71.4476 86.0652 73.2597 85.429 74.1175 83.9655C74.1175 84.6018 74.1808 85.3335 74.2444 85.6516Z" fill="white"/>
<path d="M86.8567 91.696V84.1244C87.6191 85.1742 89.2081 86.0333 91.3691 86.0333C95.7857 86.0333 98.7405 82.5337 98.7405 77.7935C98.7405 73.1487 96.1035 69.6492 91.5278 69.6492C89.1766 69.6492 87.4289 70.699 86.7298 71.908V69.9992H82.6309V91.696H86.8567ZM94.578 77.8253C94.578 80.625 92.8624 82.2474 90.7014 82.2474C88.5411 82.2474 86.7934 80.5931 86.7934 77.8253C86.7934 75.0575 88.5411 73.435 90.7014 73.435C92.8624 73.435 94.578 75.0575 94.578 77.8253Z" fill="white"/>
<path d="M101.133 81.3884C101.133 83.8381 103.166 86.0969 106.503 86.0969C108.822 86.0969 110.316 85.0151 111.11 83.7744C111.11 84.3789 111.173 85.2378 111.269 85.6514H115.145C115.05 85.1106 114.955 83.9971 114.955 83.17V75.4711C114.955 72.3215 113.112 69.522 108.155 69.522C103.961 69.522 101.704 72.2261 101.451 74.6757L105.2 75.4711C105.327 74.1031 106.344 72.926 108.187 72.926C109.966 72.926 110.824 73.8486 110.824 74.9621C110.824 75.5029 110.539 75.9483 109.649 76.0755L105.804 76.6482C103.198 77.03 101.133 78.5888 101.133 81.3884ZM107.392 82.9473C106.026 82.9473 105.359 82.0565 105.359 81.1339C105.359 79.925 106.216 79.3205 107.297 79.1615L110.824 78.6206V79.3205C110.824 82.0883 109.172 82.9473 107.392 82.9473Z" fill="white"/>
<path d="M123.314 85.6513V83.7425C124.14 85.0787 125.792 86.0331 127.953 86.0331C132.402 86.0331 135.325 82.5017 135.325 77.7615C135.325 73.1167 132.688 69.5854 128.112 69.5854C125.792 69.5854 124.076 70.6035 123.377 71.7169V62.6182H119.215V85.6513H123.314ZM131.099 77.7933C131.099 80.6565 129.383 82.2472 127.222 82.2472C125.093 82.2472 123.314 80.6248 123.314 77.7933C123.314 74.9301 125.093 73.3712 127.222 73.3712C129.383 73.3712 131.099 74.9301 131.099 77.7933Z" fill="white"/>
<path d="M137.719 81.3885C137.719 83.8381 139.752 86.0969 143.089 86.0969C145.408 86.0969 146.902 85.0152 147.696 83.7745C147.696 84.379 147.76 85.2379 147.855 85.6515H151.731C151.637 85.1107 151.541 83.9972 151.541 83.17V75.4711C151.541 72.3216 149.698 69.522 144.741 69.522C140.547 69.522 138.291 72.2261 138.037 74.6758L141.786 75.4711C141.913 74.1032 142.93 72.9261 144.772 72.9261C146.552 72.9261 147.41 73.8486 147.41 74.9621C147.41 75.503 147.124 75.9484 146.234 76.0756L142.39 76.6483C139.784 77.03 137.719 78.5889 137.719 81.3885ZM143.979 82.9473C142.612 82.9473 141.945 82.0566 141.945 81.134C141.945 79.9251 142.802 79.3206 143.883 79.1615L147.41 78.6207V79.3206C147.41 82.0884 145.758 82.9473 143.979 82.9473Z" fill="white"/>
<path d="M154.465 81.293C154.655 83.0746 156.276 86.1287 160.978 86.1287C165.078 86.1287 167.048 83.52 167.048 80.9749C167.048 78.6843 165.491 76.8073 162.409 76.171L160.184 75.6938C159.326 75.5348 158.755 75.0576 158.755 74.294C158.755 73.4032 159.644 72.7352 160.756 72.7352C162.536 72.7352 163.203 73.9123 163.331 74.8349L166.857 74.0395C166.666 72.3534 165.173 69.522 160.725 69.522C157.356 69.522 154.878 71.8444 154.878 74.644C154.878 76.8391 156.244 78.6525 159.263 79.3206L161.328 79.7978C162.536 80.0523 163.013 80.625 163.013 81.3249C163.013 82.152 162.345 82.8837 160.947 82.8837C159.104 82.8837 158.183 81.7384 158.087 80.4977L154.465 81.293Z" fill="white"/>
<path d="M173.469 76.0438C173.564 74.6122 174.772 72.9578 176.964 72.9578C179.379 72.9578 180.396 74.4849 180.46 76.0438H173.469ZM180.873 80.116C180.365 81.5157 179.284 82.502 177.314 82.502C175.217 82.502 173.469 81.0067 173.374 78.9389H184.559C184.559 78.8752 184.622 78.2389 184.622 77.6344C184.622 72.6079 181.731 69.522 176.901 69.522C172.897 69.522 169.211 72.767 169.211 77.7617C169.211 83.0428 172.992 86.1287 177.282 86.1287C181.127 86.1287 183.606 83.8699 184.4 81.1658L180.873 80.116Z" fill="white"/>
<path d="M20.264 95.1363C19.3544 96.2816 17.5103 95.6541 17.4884 94.1916L17.168 72.8013H31.5508C34.1559 72.8013 35.6088 75.8103 33.9889 77.8505L20.264 95.1363Z" fill="url(#paint0_linear_76_355)"/>
<path d="M20.264 95.1363C19.3544 96.2816 17.5103 95.6541 17.4884 94.1916L17.168 72.8013H31.5508C34.1559 72.8013 35.6088 75.8103 33.9889 77.8505L20.264 95.1363Z" fill="url(#paint1_linear_76_355)" fill-opacity="0.2"/>
<path d="M14.4137 60.7173C15.3232 59.5719 17.1674 60.1995 17.1893 61.662L17.3297 83.0522H3.12691C0.521717 83.0522 -0.931246 80.0433 0.688739 78.0031L14.4137 60.7173Z" fill="#3ECF8E"/>
</g>
<defs>
<linearGradient id="paint0_linear_76_355" x1="17.168" y1="77.5441" x2="29.9509" y2="82.9052" gradientUnits="userSpaceOnUse">
<stop stop-color="#249361"/>
<stop offset="1" stop-color="#3ECF8E"/>
</linearGradient>
<linearGradient id="paint1_linear_76_355" x1="11.5007" y1="69.7846" x2="17.3304" y2="80.7587" gradientUnits="userSpaceOnUse">
<stop/>
<stop offset="1" stop-opacity="0"/>
</linearGradient>
<clipPath id="clip0_76_355">
<rect width="184.796" height="35.9414" fill="white" transform="translate(0 60.0587)"/>
</clipPath>
</defs>
</svg>
