<svg width="225" height="96" viewBox="0 0 225 96" fill="none" xmlns="http://www.w3.org/2000/svg">
<g clip-path="url(#clip0_76_384)">
<path d="M82.5998 14.9269C82.2914 12.6952 81.058 10.7575 78.8324 9.00693L77.5454 8.13831L76.6874 9.43456C75.588 11.105 75.0383 13.4302 75.2126 15.6619C75.2931 16.437 75.5478 17.8535 76.3388 19.0696C75.5478 19.5106 73.9792 20.0986 71.8877 20.0585H31.9355L31.8551 20.5262C31.4797 22.7579 31.4797 29.7469 35.9709 35.1057C39.3897 39.1815 44.4977 41.2528 51.1742 41.2528C65.6536 41.2528 76.3522 34.531 81.3797 22.2902C83.3505 22.3302 87.6005 22.3035 89.7858 18.094C89.8394 18.0005 89.9735 17.7466 90.3489 16.9448L90.5634 16.5038L89.3434 15.6753C88.0027 14.8066 84.9594 14.4726 82.5998 14.9269ZM63.8839 0H57.8106V5.57254H63.8839V0ZM63.8839 6.69506H57.8106V12.2676H63.8839V6.69506ZM56.6978 6.69506H50.6246V12.2676H56.6978V6.69506ZM49.5252 6.69506H43.4519V12.2676H49.5252V6.69506ZM42.3392 13.3901H36.2659V18.9627H42.3392V13.3901ZM49.5252 13.3901H43.4519V18.9627H49.5252V13.3901ZM56.6978 13.3901H50.6246V18.9627H56.6978V13.3901ZM63.8839 13.3901H57.8106V18.9627H63.8839V13.3901ZM71.0699 13.3901H64.9966V18.9627H71.0699V13.3901ZM107.992 12.134C107.55 12.134 107.174 12.281 106.893 12.575C106.598 12.869 106.45 13.2565 106.45 13.6975V21.2478C104.949 20.005 103.219 19.3903 101.235 19.3903C98.9426 19.3903 96.9852 20.2188 95.363 21.8759C93.7408 23.5329 92.9364 25.5241 92.9364 27.8627C92.9364 30.2013 93.7542 32.1924 95.363 33.8495C96.9852 35.5066 98.9426 36.3351 101.235 36.3351C103.528 36.3351 105.472 35.5066 107.107 33.8495C108.73 32.2192 109.534 30.2146 109.534 27.8627V13.7108C109.534 13.2565 109.387 12.8823 109.078 12.5883C108.797 12.281 108.435 12.134 107.992 12.134ZM106.048 29.9207C105.78 30.5621 105.405 31.1234 104.935 31.6044C104.466 32.0855 103.917 32.4731 103.286 32.7537C102.656 33.0343 101.973 33.1813 101.249 33.1813C100.525 33.1813 99.8409 33.0477 99.1974 32.7537C98.5672 32.4731 98.0176 32.0855 97.5483 31.6044C97.0791 31.1234 96.7171 30.5621 96.449 29.9207C96.1808 29.2792 96.0468 28.5843 96.0468 27.8627C96.0468 27.1411 96.1808 26.4462 96.449 25.8047C96.7171 25.1633 97.0925 24.602 97.5483 24.1209C98.0176 23.6399 98.5672 23.2657 99.1974 22.9717C99.8275 22.6911 100.511 22.5441 101.249 22.5441C101.986 22.5441 102.643 22.6777 103.286 22.9717C103.917 23.2523 104.466 23.6399 104.935 24.1209C105.405 24.602 105.78 25.1633 106.048 25.8047C106.316 26.4462 106.45 27.1277 106.45 27.8493C106.45 28.5843 106.316 29.2658 106.048 29.9207ZM175.911 21.8759C174.275 20.2188 172.305 19.3903 170.039 19.3903C167.76 19.3903 165.789 20.2188 164.167 21.8759C162.544 23.5329 161.74 25.5241 161.74 27.8627C161.74 30.2013 162.558 32.1924 164.167 33.8495C165.789 35.5066 167.746 36.3351 170.039 36.3351C172.13 36.3351 173.927 35.6535 175.469 34.2771C175.764 33.9698 175.911 33.5822 175.911 33.1412C175.911 32.7002 175.764 32.3127 175.469 32.0187C175.174 31.7247 174.812 31.5777 174.369 31.5777C173.98 31.5911 173.645 31.7113 173.35 31.9786C172.881 32.3795 172.385 32.6869 171.835 32.8873C171.286 33.0878 170.696 33.1947 170.039 33.1947C169.462 33.1947 168.913 33.1011 168.39 32.9274C167.867 32.7403 167.371 32.4864 166.942 32.1657C166.499 31.8316 166.124 31.4441 165.789 30.9897C165.467 30.5354 165.212 30.0276 165.051 29.4663H176.796C177.225 29.4663 177.6 29.3193 177.895 29.0253C178.204 28.7313 178.351 28.3438 178.351 27.9028C178.351 26.7268 178.15 25.6444 177.748 24.6421C177.332 23.6131 176.729 22.7044 175.911 21.8759ZM165.025 26.2992C165.186 25.7513 165.427 25.2435 165.749 24.7757C166.07 24.3214 166.459 23.9205 166.902 23.5998C167.344 23.2657 167.84 23.0251 168.376 22.8381C168.913 22.651 169.462 22.5708 170.025 22.5708C170.588 22.5708 171.138 22.6643 171.661 22.8381C172.197 23.0251 172.68 23.279 173.109 23.5998C173.551 23.9339 173.94 24.3214 174.262 24.7757C174.597 25.2301 174.838 25.7379 175.013 26.2992H165.025ZM192.173 20.4594C191.892 20.1921 191.543 19.9783 191.128 19.8179C190.712 19.6576 190.243 19.5507 189.747 19.4972C189.251 19.4304 188.782 19.4037 188.339 19.4037C187.347 19.4037 186.422 19.564 185.55 19.8847C184.679 20.2055 183.875 20.6732 183.137 21.2745V20.9805C183.137 20.5395 182.99 20.1787 182.681 19.8714C182.373 19.564 182.024 19.4037 181.595 19.4037C181.166 19.4037 180.791 19.564 180.496 19.8714C180.188 20.1787 180.04 20.5529 180.04 20.9805V34.7716C180.04 35.2126 180.188 35.5734 180.496 35.8807C180.804 36.1881 181.166 36.3484 181.595 36.3484C182.024 36.3484 182.386 36.1881 182.681 35.8807C182.99 35.5734 183.137 35.1992 183.137 34.7716V27.8761C183.137 27.1411 183.271 26.4462 183.539 25.8047C183.808 25.1633 184.183 24.602 184.652 24.1209C185.121 23.6399 185.671 23.2657 186.301 22.9851C186.931 22.7044 187.615 22.5708 188.339 22.5708C189.063 22.5708 189.747 22.7044 190.377 22.945C190.618 23.0519 190.846 23.1187 191.034 23.1187C191.248 23.1187 191.449 23.0786 191.637 22.9984C191.825 22.9182 191.986 22.798 192.133 22.6643C192.267 22.5173 192.388 22.357 192.468 22.1565C192.549 21.9694 192.589 21.7556 192.589 21.5418C192.589 21.0874 192.455 20.7266 192.173 20.4594ZM125.501 21.8759C123.866 20.2188 121.895 19.3903 119.629 19.3903C117.364 19.3903 115.379 20.2188 113.757 21.8759C112.135 23.5329 111.331 25.5241 111.331 27.8627C111.331 30.2013 112.148 32.1924 113.757 33.8495C115.379 35.5066 117.337 36.3351 119.629 36.3351C121.922 36.3351 123.866 35.5066 125.501 33.8495C127.124 32.2192 127.928 30.2146 127.928 27.8627C127.915 26.6867 127.714 25.6043 127.311 24.6154C126.909 23.6265 126.306 22.7044 125.501 21.8759ZM124.429 29.9207C124.161 30.5621 123.785 31.1234 123.316 31.6044C122.847 32.0855 122.297 32.4731 121.667 32.7537C121.037 33.0343 120.353 33.1813 119.629 33.1813C118.905 33.1813 118.222 33.0477 117.578 32.7537C116.948 32.4731 116.398 32.0855 115.929 31.6044C115.46 31.1234 115.098 30.5621 114.83 29.9207C114.562 29.2792 114.427 28.5843 114.427 27.8627C114.427 27.1411 114.562 26.4462 114.83 25.8047C115.098 25.1633 115.473 24.602 115.929 24.1209C116.398 23.6399 116.948 23.2657 117.578 22.9717C118.208 22.6911 118.892 22.5441 119.629 22.5441C120.367 22.5441 121.024 22.6777 121.667 22.9717C122.297 23.2523 122.847 23.6399 123.316 24.1209C123.785 24.602 124.161 25.1633 124.429 25.8047C124.697 26.4462 124.831 27.1277 124.831 27.8493C124.831 28.5843 124.697 29.2658 124.429 29.9207ZM160.037 20.9672C160.037 20.7534 159.997 20.5529 159.917 20.3658C159.836 20.1787 159.729 20.005 159.582 19.858C159.447 19.711 159.273 19.5907 159.085 19.5239C158.898 19.4437 158.697 19.4037 158.482 19.4037C158.174 19.4037 157.892 19.4838 157.651 19.6442L148.776 25.5241V13.7242C148.776 13.2832 148.628 12.909 148.32 12.6017C148.011 12.2943 147.663 12.134 147.234 12.134C146.805 12.134 146.429 12.2943 146.135 12.6017C145.826 12.909 145.679 13.2832 145.679 13.7242V34.7448C145.679 35.1858 145.826 35.56 146.135 35.8674C146.443 36.1747 146.805 36.3351 147.234 36.3351C147.663 36.3351 148.025 36.1747 148.32 35.8674C148.628 35.56 148.776 35.1858 148.776 34.7448V29.2792L150.586 28.0631L157.436 35.9075C157.718 36.1747 158.067 36.3084 158.469 36.3084C158.683 36.3084 158.884 36.2683 159.072 36.1881C159.26 36.1079 159.421 35.9876 159.568 35.854C159.702 35.707 159.823 35.5466 159.903 35.3462C159.984 35.1591 160.024 34.9453 160.024 34.7448C160.024 34.3306 159.876 33.9698 159.595 33.6357L153.24 26.3259L159.461 22.21C159.85 21.9427 160.037 21.5284 160.037 20.9672ZM134.283 24.1076C134.752 23.6265 135.315 23.2523 135.945 22.9717C136.575 22.6911 137.259 22.5574 137.983 22.5574C138.64 22.5574 139.243 22.6643 139.793 22.8915C140.343 23.1187 140.879 23.4394 141.375 23.867C141.67 24.1076 142.005 24.2278 142.381 24.2278C142.823 24.2278 143.198 24.0808 143.48 23.7735C143.775 23.4661 143.922 23.092 143.922 22.6376C143.922 22.1832 143.748 21.769 143.386 21.4483C141.858 20.0718 140.061 19.3903 137.97 19.3903C135.677 19.3903 133.72 20.2188 132.098 21.8759C130.475 23.5329 129.671 25.5241 129.671 27.8627C129.671 30.2013 130.489 32.1924 132.098 33.8495C133.72 35.5066 135.677 36.3351 137.97 36.3351C140.048 36.3351 141.858 35.6535 143.386 34.2771C143.708 33.943 143.882 33.5555 143.882 33.1145C143.882 32.6735 143.735 32.286 143.44 31.992C143.145 31.698 142.783 31.551 142.34 31.551C141.965 31.5644 141.643 31.6713 141.362 31.8851C140.866 32.3261 140.343 32.6468 139.793 32.8606C139.243 33.0744 138.64 33.1813 137.983 33.1813C137.259 33.1813 136.589 33.0477 135.945 32.7671C135.315 32.4864 134.752 32.1123 134.283 31.6312C133.814 31.1634 133.438 30.5888 133.157 29.9474C132.889 29.3059 132.755 28.611 132.755 27.8761C132.755 27.1411 132.889 26.4462 133.157 25.8047C133.438 25.1499 133.814 24.602 134.283 24.1076Z" fill="#E5F2FC"/>
</g>
<g clip-path="url(#clip1_76_384)">
<path d="M72.5696 71.3818C66.9572 71.3818 62.911 75.0581 62.911 80.6382C62.911 86.2183 67.4793 89.8947 73.0917 89.8947C76.4852 89.8947 79.4872 88.516 81.3145 86.284L77.3988 83.9863C76.3547 85.1023 74.7884 85.7588 73.0264 85.7588C70.6118 85.7588 68.5234 84.4458 67.7403 82.4107H82.0323C82.1629 81.8199 82.2281 81.2291 82.2281 80.6382C82.2281 75.0581 78.182 71.3818 72.5696 71.3818ZM67.7403 78.8001C68.3929 76.765 70.0897 75.452 72.5696 75.452C74.9842 75.452 76.7462 76.765 77.3988 78.8001H67.7403ZM66.5656 65.736L52.4694 90.3542L38.3079 65.736H43.594L52.4041 81.0978L61.2795 65.736H66.5656ZM18.8603 63.1757L37.7205 96H0L18.8603 63.1757ZM102.72 80.6382C102.72 83.7237 104.743 85.7588 107.81 85.7588C109.899 85.7588 111.465 84.7741 112.313 83.2642L116.229 85.5619C114.597 88.2534 111.595 89.8947 107.81 89.8947C102.198 89.8947 98.1517 86.2183 98.1517 80.6382C98.1517 75.0581 102.198 71.3818 107.81 71.3818C111.53 71.3818 114.597 73.023 116.229 75.7146L112.313 78.0123C111.53 76.4367 109.899 75.5176 107.81 75.5176C104.743 75.5176 102.72 77.5527 102.72 80.6382ZM144.813 65.736V89.3038H140.245V65.736H144.813ZM127.454 71.3818C121.841 71.3818 117.795 75.0581 117.795 80.6382C117.795 86.2183 122.363 89.8947 127.976 89.8947C131.369 89.8947 134.371 88.516 136.198 86.284L132.283 83.9863C131.239 85.1023 129.672 85.7588 127.91 85.7588C125.496 85.7588 123.407 84.4458 122.624 82.4107H136.916C137.047 81.8199 137.112 81.2291 137.112 80.6382C137.177 75.0581 133.066 71.3818 127.454 71.3818ZM122.624 78.8001C123.277 76.765 124.974 75.452 127.454 75.452C129.933 75.452 131.63 76.765 132.283 78.8001H122.624ZM96.6507 71.907V76.8963C96.1286 76.765 95.6065 76.6337 95.0192 76.6337C92.0825 76.6337 89.9289 78.6688 89.9289 81.7542V89.3695H85.3606V71.907H89.9289V76.6337C89.9289 74.0077 92.9308 71.907 96.6507 71.907Z" fill="white"/>
</g>
<g clip-path="url(#clip2_76_384)">
<path d="M178.658 90.4106H191.094L194.28 95.9972H169.05L177.909 80.7011L181.621 74.2958L184.808 79.7989L178.658 90.4106ZM183.296 71.399L186.356 66.1151L203.676 95.9972H197.542L183.296 71.399ZM188.06 63.1757H194.185L213.202 95.9972H207.069L188.06 63.1757Z" fill="url(#paint0_linear_76_384)"/>
</g>
<defs>
<linearGradient id="paint0_linear_76_384" x1="4584.3" y1="790.894" x2="878.62" y2="3565.34" gradientUnits="userSpaceOnUse">
<stop stop-color="#FF9900"/>
<stop offset="1" stop-color="#FFC300"/>
</linearGradient>
<clipPath id="clip0_76_384">
<rect width="160.881" height="41.2929" fill="white" transform="translate(31.7075)"/>
</clipPath>
<clipPath id="clip1_76_384">
<rect width="144.813" height="32.8243" fill="white" transform="translate(0 63.1757)"/>
</clipPath>
<clipPath id="clip2_76_384">
<rect width="44.4716" height="32.8243" fill="white" transform="translate(168.884 63.1757)"/>
</clipPath>
</defs>
</svg>
