<svg width="67" height="80" viewBox="0 0 67 80" fill="none" xmlns="http://www.w3.org/2000/svg">
<path d="M0 80V0H36C41.1047 0 45.7141 1.10485 49.8284 3.31426C54.0191 5.52368 57.2952 8.57134 59.657 12.4572C62.0191 16.2665 63.2 20.6096 63.2 25.4856C63.2 30.5142 62.0191 35.0476 59.657 39.0856C57.2952 43.0475 54.057 46.1715 49.9426 48.457C45.8286 50.7427 41.1808 51.8857 36 51.8857H18.5141V80H0ZM44.3429 80L23.9999 43.8858L43.8858 41.0287L66.5142 80H44.3429ZM18.5141 37.0285H34.2856C36.2666 37.0285 37.981 36.6095 39.4285 35.7713C40.9523 34.857 42.0951 33.6 42.857 31.9999C43.6952 30.4 44.1142 28.5714 44.1142 26.5144C44.1142 24.4571 43.6571 22.6666 42.7428 21.1428C41.8285 19.5429 40.4952 18.3239 38.7429 17.4856C37.0667 16.6476 35.0094 16.2287 32.5713 16.2287H18.5141V37.0285Z" fill="white"/>
</svg>
