<svg width="115" height="96" viewBox="0 0 115 96" fill="none" xmlns="http://www.w3.org/2000/svg">
<g clip-path="url(#clip0_76_330)">
<path d="M34.1191 16.3137C34.1191 8.62336 34.1191 4.77819 36.5083 2.38908C38.8973 0 42.7424 0 50.4328 0H64.8643C72.5547 0 76.3998 0 78.7888 2.38908C81.178 4.77819 81.178 8.62336 81.178 16.3137V30.7452C81.178 38.4355 81.178 42.2807 78.7888 44.6696C76.3998 47.0588 72.5547 47.0588 64.8643 47.0588H50.4328C42.7424 47.0588 38.8973 47.0588 36.5083 44.6696C34.1191 42.2807 34.1191 38.4355 34.1191 30.7452V16.3137Z" fill="#4945FF"/>
<path fill-rule="evenodd" clip-rule="evenodd" d="M66.5892 14.2746H50.7461V22.3531H58.8244V30.4314H66.903V14.5883C66.903 14.4151 66.7626 14.2746 66.5892 14.2746Z" fill="white"/>
<path d="M58.8235 22.3531H58.5098V22.6668H58.8235V22.3531Z" fill="white"/>
<path d="M50.7461 22.353H58.5108C58.684 22.353 58.8244 22.4935 58.8244 22.6667V30.4314H51.0597C50.8866 30.4314 50.7461 30.2909 50.7461 30.1177V22.353Z" fill="#9593FF"/>
<path d="M58.8242 30.4314H66.9026L59.092 38.242C58.9932 38.3408 58.8242 38.2709 58.8242 38.1312V30.4314Z" fill="#9593FF"/>
<path d="M50.7455 22.3528H43.0458C42.906 22.3528 42.8361 22.1839 42.935 22.0851L50.7455 14.2744V22.3528Z" fill="#9593FF"/>
<path d="M108.892 61.4966C109.578 62.1865 110.388 62.5314 111.323 62.5314C112.286 62.5314 113.111 62.1865 113.797 61.4966C114.483 60.8067 114.826 59.9921 114.826 59.0526C114.826 58.1131 114.483 57.2909 113.797 56.5865C113.111 55.8818 112.286 55.5295 111.323 55.5295C110.388 55.5295 109.578 55.8818 108.892 56.5865C108.206 57.2909 107.863 58.1131 107.863 59.0526C107.863 59.9921 108.206 60.8067 108.892 61.4966Z" fill="white"/>
<path d="M35.0181 70.5045C35.0181 70.5767 34.9599 70.6351 34.8879 70.6351H30.0698V79.7951C30.0698 80.5584 30.2597 81.1163 30.6392 81.4685C31.0188 81.8207 31.5734 82.0189 32.3032 82.0631C32.971 82.1033 33.7851 82.1005 34.7461 82.0549L34.7708 82.0537L34.8152 82.0516L34.8811 82.048C34.9555 82.0443 35.0181 82.1038 35.0181 82.1786V87.0765C35.0181 87.1431 34.9682 87.1991 34.9023 87.2061C34.8703 87.2097 34.8378 87.2134 34.8141 87.216C31.0395 87.6205 28.3705 87.2461 26.8077 86.0925C25.2166 84.9181 24.4211 82.8191 24.4211 79.7951V70.6351H20.7417C20.6697 70.6351 20.6113 70.5767 20.6113 70.5045V65.3052C20.6113 65.233 20.6697 65.1746 20.7417 65.1746H24.4211V61.5377C24.4211 61.4341 24.4821 61.3405 24.5764 61.2986L29.887 58.948C29.9731 58.9099 30.0698 58.9732 30.0698 59.0676V65.1746H34.8879C34.9599 65.1746 35.0181 65.233 35.0181 65.3052V70.5045Z" fill="white"/>
<path d="M45.2603 68.9612C45.7857 67.5521 46.6542 66.4951 47.8657 65.7907C48.9744 65.1457 50.1993 64.7961 51.5403 64.7412C51.605 64.7387 51.7043 64.7368 51.7847 64.7354C51.8572 64.7342 51.9163 64.793 51.9163 64.8655V70.8413C51.9163 70.966 51.808 71.062 51.684 71.0507C50.0551 70.9024 48.5927 71.2629 47.2965 72.1321C45.9389 73.0422 45.2603 74.554 45.2603 76.6678V87.0622C45.2603 87.1344 45.2019 87.193 45.1299 87.193H39.7417C39.6697 87.193 39.6113 87.1344 39.6113 87.0622V65.3045C39.6113 65.2325 39.6697 65.174 39.7417 65.174H45.1299C45.2019 65.174 45.2603 65.2325 45.2603 65.3045V68.9612Z" fill="white"/>
<path fill-rule="evenodd" clip-rule="evenodd" d="M71.9714 65.1738C71.8997 65.1738 71.8413 65.2322 71.8413 65.3044V67.772C70.1479 65.6289 67.7689 64.5574 64.7034 64.5574C61.7841 64.5574 59.2809 65.6802 57.1936 67.9261C55.1063 70.1722 54.0625 72.9244 54.0625 76.1833C54.0625 79.4421 55.1063 82.1943 57.1936 84.4402C59.2809 86.6863 61.7841 87.8091 64.7034 87.8091C67.7689 87.8091 70.1479 86.7376 71.8413 84.5943V87.0621C71.8413 87.1341 71.8997 87.1927 71.9714 87.1927H77.3597C77.4317 87.1927 77.49 87.1341 77.49 87.0621V65.3044C77.49 65.2322 77.4317 65.1738 77.3597 65.1738H71.9714ZM61.4187 80.6752C62.5573 81.8204 64.0025 82.3929 65.754 82.3929C67.5056 82.3929 68.958 81.8129 70.1112 80.6534C71.2641 79.4936 71.8409 78.0037 71.8409 76.1835C71.8409 74.3632 71.2641 72.8734 70.1112 71.7136C68.958 70.5541 67.5056 69.9741 65.754 69.9741C64.0025 69.9741 62.5573 70.5541 61.4187 71.7136C60.2804 72.8734 59.711 74.3632 59.711 76.1835C59.711 78.0037 60.2804 79.5009 61.4187 80.6752Z" fill="white"/>
<path fill-rule="evenodd" clip-rule="evenodd" d="M102.027 67.9261C99.9396 65.6802 97.4218 64.5574 94.4733 64.5574C91.4081 64.5574 89.0434 65.6289 87.3794 67.772V65.3044C87.3794 65.2322 87.3211 65.1738 87.2491 65.1738H81.8608C81.7888 65.1738 81.7305 65.2322 81.7305 65.3044V95.8696C81.7305 95.9416 81.7888 96.0002 81.8608 96.0002H87.2491C87.3211 96.0002 87.3794 95.9416 87.3794 95.8696V84.5943C89.0434 86.7376 91.4081 87.8091 94.4733 87.8091C97.4218 87.8091 99.9396 86.6863 102.027 84.4402C104.114 82.1943 105.158 79.4421 105.158 76.1833C105.158 72.9244 104.114 70.1722 102.027 67.9261ZM89.0867 80.6752C90.2253 81.8204 91.6702 82.3929 93.422 82.3929C95.1735 82.3929 96.626 81.8129 97.7789 80.6534C98.9321 79.4936 99.5088 78.0037 99.5088 76.1835C99.5088 74.3632 98.9321 72.8734 97.7789 71.7136C96.626 70.5541 95.1735 69.9741 93.422 69.9741C91.6702 69.9741 90.2253 70.5541 89.0867 71.7136C87.9481 72.8734 87.3789 74.3632 87.3789 76.1835C87.3789 78.0037 87.9481 79.5009 89.0867 80.6752Z" fill="white"/>
<path d="M108.65 87.1931C108.578 87.1931 108.52 87.1346 108.52 87.0626V65.3049C108.52 65.2327 108.578 65.1743 108.65 65.1743H114.038C114.11 65.1743 114.168 65.2327 114.168 65.3049V87.0626C114.168 87.1346 114.11 87.1931 114.038 87.1931H108.65Z" fill="white"/>
<path d="M7.81534 72.8583C7.04172 72.4912 6.65489 72.0143 6.65489 71.427C6.65489 70.8694 6.89574 70.4289 7.37743 70.1061C7.85913 69.783 8.46487 69.6216 9.19471 69.6216C10.5942 69.6216 11.6514 70.1703 12.3663 71.2675C12.4162 71.3439 12.5132 71.375 12.5966 71.3378L17.3626 69.2174C17.4335 69.1858 17.4614 69.0995 17.4219 69.0327C17.3694 68.9435 17.3002 68.8275 17.2542 68.7548C16.4373 67.4632 15.3806 66.5014 14.0554 65.7682C12.5957 64.9609 10.9755 64.5571 9.19471 64.5571C6.83005 64.5571 4.85223 65.1811 3.2612 66.4289C1.67016 67.6767 0.874654 69.3868 0.874654 71.5592C0.874654 72.9978 1.26146 74.1941 2.03508 75.1482C2.80871 76.1025 3.75016 76.7997 4.85953 77.2402C5.96887 77.6804 7.07819 78.0475 8.18755 78.3411C9.29689 78.6345 10.2384 78.9649 11.012 79.332C11.7856 79.6988 12.1724 80.176 12.1724 80.763C12.1724 82.0256 11.1652 82.6567 9.15092 82.6567C7.23351 82.6567 5.90478 81.9442 5.16475 80.5188C5.1012 80.3964 4.95572 80.3404 4.82991 80.3964L0.0772984 82.5143C0.010316 82.544 -0.0189553 82.6235 0.0128987 82.6896C0.0321289 82.7296 0.0523965 82.7712 0.0672223 82.8011C1.72811 86.1397 4.75598 87.8091 9.15092 87.8091C11.6616 87.8091 13.7561 87.1999 15.4348 85.9816C17.1134 84.7632 17.9527 83.0237 17.9527 80.763C17.9527 79.2658 17.5659 78.0181 16.7922 77.02C16.0186 76.0216 15.0771 75.3098 13.9678 74.8842C12.8584 74.4583 11.7491 74.1061 10.6398 73.8272C9.53042 73.5482 8.58896 73.2254 7.81534 72.8583Z" fill="white"/>
</g>
<defs>
<clipPath id="clip0_76_330">
<rect width="114.824" height="96" fill="white"/>
</clipPath>
</defs>
</svg>
