<svg width="144" height="60" viewBox="0 0 144 60" fill="none" xmlns="http://www.w3.org/2000/svg">
<path fill-rule="evenodd" clip-rule="evenodd" d="M143.24 31.1056C143.24 20.9231 138.321 12.8885 128.918 12.8885C119.476 12.8885 113.764 20.9231 113.764 31.026C113.764 42.9984 120.508 49.0442 130.188 49.0442C134.909 49.0442 138.479 47.9703 141.177 46.4588V38.5038C138.479 39.8561 135.385 40.6914 131.457 40.6914C127.609 40.6914 124.197 39.3391 123.761 34.6456H143.161C143.161 34.1285 143.24 32.0602 143.24 31.1056ZM123.642 27.3269C123.642 22.8323 126.379 20.9629 128.879 20.9629C131.299 20.9629 133.877 22.8323 133.877 27.3269H123.642Z" fill="#635BFF"/>
<path fill-rule="evenodd" clip-rule="evenodd" d="M98.4528 12.8882C94.565 12.8882 92.0657 14.7179 90.6771 15.9907L90.1614 13.5246H81.4336V59.9026L91.3516 57.7945L91.3912 46.5381C92.8194 47.5723 94.922 49.044 98.4132 49.044C105.514 49.044 111.981 43.3163 111.981 30.7076C111.941 19.1727 105.395 12.8882 98.4528 12.8882ZM96.0725 40.2934C93.7319 40.2934 92.3433 39.4581 91.3912 38.424L91.3516 23.6673C92.383 22.5139 93.8112 21.7184 96.0725 21.7184C99.6827 21.7184 102.182 25.7754 102.182 30.986C102.182 36.3159 99.7223 40.2934 96.0725 40.2934Z" fill="#635BFF"/>
<path fill-rule="evenodd" clip-rule="evenodd" d="M67.7852 10.5419L77.7428 8.39402V0.319641L67.7852 2.42773V10.5419Z" fill="#635BFF"/>
<path d="M77.7428 13.5648H67.7852V48.3681H77.7428V13.5648Z" fill="#635BFF"/>
<path fill-rule="evenodd" clip-rule="evenodd" d="M57.1121 16.5079L56.4773 13.5645H47.9082V48.3679H57.8262V24.7812C60.1668 21.7185 64.134 22.2753 65.3638 22.7128V13.5645C64.0943 13.0872 59.4527 12.2122 57.1121 16.5079Z" fill="#635BFF"/>
<path fill-rule="evenodd" clip-rule="evenodd" d="M37.2802 4.93326L27.6002 7.00157L27.5605 38.8616C27.5605 44.7483 31.9641 49.0838 37.8356 49.0838C41.0887 49.0838 43.469 48.4872 44.7781 47.7712V39.6969C43.5086 40.2139 37.2405 42.0436 37.2405 36.1569V22.0366H44.7781V13.5645H37.2405L37.2802 4.93326Z" fill="#635BFF"/>
<path fill-rule="evenodd" clip-rule="evenodd" d="M10.4608 23.6675C10.4608 22.1163 11.7303 21.5196 13.8329 21.5196C16.848 21.5196 20.6565 22.4345 23.6715 24.0653V14.7181C20.3788 13.4055 17.1257 12.8884 13.8329 12.8884C5.77953 12.8884 0.423828 17.1046 0.423828 24.1448C0.423828 35.1228 15.4991 33.3727 15.4991 38.1059C15.4991 39.9356 13.9123 40.5322 11.6906 40.5322C8.39787 40.5322 4.19265 39.1799 0.860218 37.3502V46.8167C4.5497 48.4077 8.27886 49.0839 11.6906 49.0839C19.9424 49.0839 25.6155 44.987 25.6155 37.8673C25.5758 26.0142 10.4608 28.1223 10.4608 23.6675Z" fill="#635BFF"/>
</svg>
