<svg width="200" height="90" viewBox="0 0 200 90" fill="none" xmlns="http://www.w3.org/2000/svg">
<path d="M23.4035 2.12769C17.7301 2.12769 14.1833 4.96492 12.7653 10.6383C14.8929 7.80109 17.3748 6.73726 20.2121 7.44683C21.8312 7.85109 22.9876 9.02556 24.2684 10.3256C26.3535 12.4426 28.7684 14.8936 34.0418 14.8936C39.7153 14.8936 43.2621 12.0564 44.6801 6.383C42.5525 9.22024 40.0706 10.2841 37.2333 9.57449C35.6152 9.17024 34.4578 7.99577 33.177 6.69577C31.0918 4.57875 28.677 2.12769 23.4035 2.12769ZM12.7653 14.8936C7.09185 14.8936 3.54504 17.7309 2.12695 23.4043C4.25461 20.567 6.73653 19.5032 9.57376 20.2128C11.1918 20.617 12.3493 21.7915 13.6301 23.0915C15.7153 25.2085 18.1301 27.6596 23.4035 27.6596C29.077 27.6596 32.6238 24.8224 34.0418 19.149C31.9142 21.9862 29.4323 23.05 26.595 22.3405C24.977 21.9362 23.8195 20.7617 22.5387 19.4617C20.4535 17.3447 18.0387 14.8936 12.7653 14.8936Z" fill="#16BDCA"/>
<path d="M64.106 11.8298V8.51061H60.1486V4.04252L56.7018 5.0638V8.51061H53.7656V11.8298H56.7018V19.4893C56.7018 23.6383 58.8082 25.1064 64.106 24.4681V21.3723C61.489 21.5 60.1486 21.5319 60.1486 19.4893V11.8298H64.106ZM79.2156 8.51061V10.7766C78.0029 9.11699 76.1199 8.09571 73.6305 8.09571C69.2901 8.09571 65.6837 11.734 65.6837 16.4893C65.6837 21.2127 69.2901 24.8829 73.6305 24.8829C76.1199 24.8829 78.0029 23.8617 79.2156 22.1702V24.4681H82.6624V8.51061H79.2156ZM74.1731 21.5957C71.3007 21.5957 69.1305 19.4574 69.1305 16.4893C69.1305 13.5212 71.3007 11.3829 74.1731 11.3829C77.0454 11.3829 79.2156 13.5212 79.2156 16.4893C79.2156 19.4574 77.0454 21.5957 74.1731 21.5957ZM88.4039 6.11699C89.6167 6.11699 90.606 5.09571 90.606 3.91486C90.606 2.7021 89.6167 1.71273 88.4039 1.71273C87.1912 1.71273 86.2018 2.7021 86.2018 3.91486C86.2018 5.09571 87.1912 6.11699 88.4039 6.11699ZM86.6805 24.4681H90.1273V8.51061H86.6805V24.4681ZM94.1295 24.4681H97.5763V1.17018H94.1295V24.4681ZM119.961 8.51061L116.834 19.5212L113.515 8.51061H110.227L106.876 19.5212L103.781 8.51061H100.142L105.153 24.4681H108.536L111.887 13.7127L115.206 24.4681H118.589L123.6 8.51061H119.961ZM127.861 6.11699C129.074 6.11699 130.063 5.09571 130.063 3.91486C130.063 2.7021 129.074 1.71273 127.861 1.71273C126.649 1.71273 125.659 2.7021 125.659 3.91486C125.659 5.09571 126.649 6.11699 127.861 6.11699ZM126.138 24.4681H129.585V8.51061H126.138V24.4681ZM141.981 8.09571C139.81 8.09571 138.087 8.89359 137.034 10.5532V8.51061H133.587V24.4681H137.034V15.9149C137.034 12.6595 138.821 11.3191 141.087 11.3191C143.257 11.3191 144.661 12.5957 144.661 15.0212V24.4681H148.108V14.6702C148.108 10.5212 145.555 8.09571 141.981 8.09571ZM164.457 2.12763V10.7766C163.244 9.11699 161.361 8.09571 158.872 8.09571C154.532 8.09571 150.925 11.734 150.925 16.4893C150.925 21.2127 154.532 24.8829 158.872 24.8829C161.361 24.8829 163.244 23.8617 164.457 22.1702V24.4681H167.904V2.12763H164.457ZM159.415 21.5957C156.542 21.5957 154.372 19.4574 154.372 16.4893C154.372 13.5212 156.542 11.3829 159.415 11.3829C162.287 11.3829 164.457 13.5212 164.457 16.4893C164.457 19.4574 162.287 21.5957 159.415 21.5957Z" fill="white"/>
<path fill-rule="evenodd" clip-rule="evenodd" d="M181.914 4.25521H192.553C193.681 4.25521 194.763 4.70353 195.561 5.50156C196.36 6.29959 196.808 7.38195 196.808 8.51053V19.1488C196.808 20.2774 196.36 21.3598 195.561 22.1578C194.763 22.9558 193.681 23.4041 192.553 23.4041H181.914C180.786 23.4041 179.703 22.9558 178.905 22.1578C178.107 21.3598 177.659 20.2774 177.659 19.1488V8.51053C177.659 7.38195 178.107 6.29959 178.905 5.50156C179.703 4.70353 180.786 4.25521 181.914 4.25521ZM175.531 8.51053C175.531 6.81766 176.204 5.19412 177.401 3.99708C178.598 2.80004 180.221 2.12755 181.914 2.12755H192.553C194.245 2.12755 195.869 2.80004 197.066 3.99708C198.263 5.19412 198.936 6.81766 198.936 8.51053V19.1488C198.936 20.8417 198.263 22.4652 197.066 23.6623C195.869 24.8593 194.245 25.5318 192.553 25.5318H181.914C180.221 25.5318 178.598 24.8593 177.401 23.6623C176.204 22.4652 175.531 20.8417 175.531 19.1488V8.51053ZM189.165 16.269C189.165 18.518 187.467 19.8882 185.174 19.8882C182.895 19.8882 181.197 18.518 181.197 16.269V9.25521H183.238V16.1063C183.238 17.119 183.774 17.8786 185.174 17.8786C186.574 17.8786 187.11 17.119 187.11 16.1063V9.25521H189.165V16.269ZM191.315 19.6797V9.25521H193.371V19.6807L191.315 19.6797Z" fill="white"/>
<path d="M193.721 78.3537V62.0775H197.567V78.3537H193.721ZM195.644 59.7698C195.217 59.7745 194.798 59.6569 194.435 59.4307C194.073 59.2046 193.782 58.8794 193.599 58.4936C193.477 58.2488 193.424 57.9691 193.424 57.6894C193.422 57.4111 193.48 57.1357 193.595 56.8822C193.71 56.6286 193.878 56.403 194.088 56.2209C194.508 55.8188 195.067 55.5915 195.662 55.609C196.274 55.609 196.781 55.8188 197.235 56.2209C197.442 56.4046 197.608 56.631 197.719 56.8844C197.831 57.1379 197.886 57.4125 197.882 57.6894C197.882 58.2663 197.655 58.7558 197.218 59.1579C196.794 59.5611 196.229 59.781 195.644 59.7698ZM185.942 71.5006V62.095H189.788V78.3537H186.064V75.4691H185.889C185.519 76.3742 184.885 77.1476 184.071 77.6894C183.249 78.2838 182.218 78.5635 180.994 78.5635C180.019 78.6174 179.049 78.3803 178.209 77.8822C177.368 77.3842 176.695 76.6478 176.274 75.7663C175.802 74.8572 175.574 73.7383 175.574 72.4446V62.0775H179.421V71.8502C179.421 72.8817 179.683 73.7034 180.26 74.2978C180.819 74.9097 181.553 75.2244 182.48 75.2244C183.039 75.2244 183.599 75.0845 184.123 74.8048C184.648 74.5251 185.102 74.1055 185.417 73.581C185.767 73.0216 185.942 72.3397 185.942 71.5181V71.5006ZM173.127 55.6265L166.134 81.623H162.76L169.753 55.6265H173.109H173.127Z" fill="white"/>
<path fill-rule="evenodd" clip-rule="evenodd" d="M37.3604 66.1682C37.4925 66.2983 37.5975 66.4535 37.6691 66.6245C37.7407 66.7956 37.7776 66.9792 37.7776 67.1647C37.7776 67.3502 37.7407 67.5338 37.6691 67.7049C37.5975 67.8759 37.4925 68.0311 37.3604 68.1612L23.3744 82.1472C23.1101 82.4115 22.7516 82.56 22.3779 82.56C22.0041 82.56 21.6457 82.4115 21.3814 82.1472C21.1171 81.8829 20.9686 81.5245 20.9686 81.1507C20.9686 80.7769 21.1171 80.4185 21.3814 80.1542L35.3674 66.1682C35.4975 66.036 35.6526 65.9311 35.8237 65.8595C35.9948 65.7878 36.1784 65.7509 36.3639 65.7509C36.5494 65.7509 36.733 65.7878 36.904 65.8595C37.0751 65.9311 37.2302 66.036 37.3604 66.1682ZM34.5632 50.7836C34.6953 50.9137 34.8003 51.0688 34.8719 51.2399C34.9435 51.411 34.9804 51.5946 34.9804 51.7801C34.9804 51.9655 34.9435 52.1492 34.8719 52.3202C34.8003 52.4913 34.6953 52.6464 34.5632 52.7766L7.98976 79.35C7.85889 79.4809 7.70354 79.5847 7.53256 79.6555C7.36158 79.7263 7.17832 79.7628 6.99325 79.7628C6.80819 79.7628 6.62493 79.7263 6.45395 79.6555C6.28297 79.5847 6.12761 79.4809 5.99675 79.35C5.86589 79.2191 5.76208 79.0638 5.69126 78.8928C5.62044 78.7218 5.58398 78.5386 5.58398 78.3535C5.58398 78.1684 5.62044 77.9852 5.69126 77.8142C5.76208 77.6432 5.86589 77.4879 5.99675 77.357L32.5702 50.7836C32.7003 50.6514 32.8554 50.5465 33.0265 50.4749C33.1976 50.4032 33.3812 50.3663 33.5667 50.3663C33.7521 50.3663 33.9358 50.4032 34.1068 50.4749C34.2779 50.5465 34.433 50.6514 34.5632 50.7836Z" fill="white"/>
<path d="M149.915 68.8257V78.3536H146.086V62.0774H149.757V64.8397H149.932C150.299 63.9655 150.929 63.1963 151.733 62.6718C152.555 62.1473 153.586 61.8676 154.792 61.8676C155.818 61.8412 156.832 62.0887 157.729 62.5844C158.569 63.0739 159.25 63.8082 159.687 64.6823C160.142 65.5914 160.387 66.6928 160.369 68.004V78.3536H156.523V68.5809C156.523 67.497 156.261 66.6578 155.684 66.0285C155.387 65.7142 155.025 65.4685 154.624 65.3085C154.222 65.1484 153.79 65.0779 153.359 65.1019C152.694 65.1019 152.1 65.2592 151.576 65.5564C151.051 65.8536 150.632 66.2907 150.352 66.8152C150.072 67.3746 149.915 68.039 149.915 68.8257ZM135.964 78.6683C134.549 78.7546 133.14 78.4184 131.917 77.7024C130.694 76.9865 129.711 75.9231 129.093 74.6473C128.45 73.2818 128.133 71.7857 128.166 70.2767C128.139 68.7645 128.468 67.2671 129.128 65.9061C129.722 64.6823 130.649 63.6334 131.82 62.9341C132.974 62.2348 134.355 61.8676 135.946 61.8676C137.152 61.8471 138.347 62.0981 139.443 62.6019C140.437 63.0559 141.288 63.7731 141.905 64.6759C142.521 65.5788 142.879 66.6329 142.939 67.7243H139.268C139.144 66.9687 138.775 66.2746 138.219 65.7487C137.659 65.2243 136.925 64.962 135.999 64.962C135.264 64.962 134.53 65.1718 133.936 65.5914C133.341 66.011 132.887 66.6054 132.537 67.3921C132.189 68.2947 132.023 69.2572 132.048 70.2243C132.048 71.3257 132.222 72.2872 132.537 73.0739C132.869 73.8606 133.324 74.4725 133.918 74.9096C134.527 75.3351 135.256 75.5555 135.999 75.539C136.558 75.539 137.065 75.4341 137.52 75.2243C137.957 75.0145 138.359 74.6998 138.639 74.2802C138.971 73.8432 139.163 73.3362 139.268 72.7942H142.939C142.886 73.8784 142.541 74.9282 141.941 75.8328C141.341 76.7375 140.508 77.4634 139.53 77.9341C138.413 78.4489 137.193 78.7001 135.964 78.6683ZM116.104 78.6334C114.858 78.6569 113.634 78.3019 112.595 77.6151C111.555 76.9284 110.749 75.9423 110.282 74.7872C109.661 73.3543 109.363 71.8026 109.408 70.2418C109.408 68.4236 109.705 66.9026 110.282 65.6613C110.894 64.4026 111.698 63.4585 112.729 62.8292C113.579 62.2933 114.546 61.9706 115.547 61.8884C116.549 61.8062 117.555 61.967 118.481 62.3571C119.041 62.6369 119.53 63.0215 119.932 63.511C120.264 63.8956 120.544 64.3152 120.771 64.7697H120.946V56.6578H124.792V78.3536H121.016V75.7837H120.771C120.544 76.2383 120.247 76.6578 119.915 77.0425C119.442 77.5791 118.853 78.0012 118.192 78.2768C117.532 78.5524 116.818 78.6744 116.104 78.6334ZM117.187 75.4865C117.934 75.5109 118.667 75.283 119.268 74.8397C119.827 74.3851 120.264 73.7732 120.562 72.9865C120.871 72.0993 121.019 71.1637 120.999 70.2243C120.999 69.1753 120.859 68.2487 120.562 67.4795C120.316 66.7608 119.866 66.1291 119.268 65.6613C118.661 65.2154 117.922 64.9875 117.17 65.0145C116.331 65.0145 115.614 65.2418 115.037 65.6788C114.478 66.1334 114.041 66.7278 113.743 67.532C113.44 68.3966 113.292 69.3081 113.306 70.2243C113.306 71.2383 113.464 72.1473 113.743 72.9341C114.041 73.7383 114.478 74.3501 115.055 74.8222C115.632 75.2592 116.348 75.4865 117.187 75.4865ZM97.6245 78.6858C96.5931 78.6858 95.6665 78.511 94.8273 78.1264C94.0373 77.7744 93.3641 77.2043 92.8868 76.483C92.4147 75.7487 92.1875 74.8571 92.1875 73.7907C92.1875 72.8641 92.3623 72.1124 92.6945 71.518C93.0091 70.9236 93.4986 70.4166 94.0756 70.0669C94.688 69.6933 95.3543 69.4162 96.0511 69.2452C96.8028 69.0704 97.5721 68.9131 98.3588 68.8432L100.684 68.5809C101.278 68.4935 101.698 68.3536 101.978 68.1963C102.24 68.0215 102.38 67.7418 102.38 67.3746V67.3222C102.38 66.518 102.135 65.8886 101.68 65.4515C101.191 65.0145 100.509 64.8047 99.6175 64.8047C98.831 64.7652 98.0526 64.9798 97.3972 65.4166C96.8905 65.7764 96.5061 66.2828 96.2958 66.8676L92.7119 66.3606C92.9563 65.4327 93.4302 64.5812 94.0902 63.8846C94.7501 63.188 95.5748 62.6687 96.4882 62.3746C98.2517 61.8034 100.138 61.7248 101.943 62.1473C102.712 62.3222 103.429 62.6194 104.076 63.0564C104.722 63.476 105.264 64.0704 105.632 64.7522C106.016 65.4865 106.208 66.3781 106.208 67.462V78.3536H102.537V76.1159H102.397C101.853 77.148 100.942 77.9398 99.8448 78.3362C99.2154 78.5634 98.4637 78.6858 97.6245 78.6858ZM98.621 75.8711C99.3903 75.8711 100.055 75.6963 100.614 75.4166C101.156 75.1194 101.611 74.6998 101.925 74.1928C102.24 73.6683 102.397 73.1089 102.397 72.5145V70.5914C102.275 70.6963 102.065 70.7837 101.768 70.8711C101.108 71.0248 100.443 71.1589 99.7749 71.2732L98.8658 71.3956C98.3063 71.4655 97.7819 71.6054 97.3448 71.7802C96.9252 71.9201 96.5581 72.1823 96.2609 72.5145C95.9986 72.8292 95.8763 73.2138 95.8763 73.7383C95.8763 74.4376 96.1385 74.962 96.6455 75.3117C97.17 75.6788 97.8168 75.8711 98.621 75.8711ZM78.4812 68.8257V78.3536H74.635V56.6578H78.3938V64.8397H78.5686C78.9357 63.9655 79.5651 63.1963 80.3518 62.6718C81.2739 62.1021 82.3457 61.822 83.4287 61.8676C84.5476 61.8676 85.5266 62.0949 86.3833 62.5669C87.2224 63.0564 87.8693 63.7383 88.3238 64.6648C88.7959 65.5564 89.0231 66.6753 89.0231 67.9865V78.3536H85.1944V68.5809C85.1944 67.497 84.9147 66.6404 84.3378 66.0285C84.0376 65.7138 83.6726 65.468 83.2682 65.308C82.8637 65.1481 82.4294 65.0777 81.9951 65.1019C81.3133 65.1019 80.7014 65.2592 80.177 65.5564C79.6525 65.8362 79.2154 66.2907 78.9182 66.8152C78.621 67.3746 78.4812 68.039 78.4812 68.8257ZM71.1385 66.3781L67.642 66.7627C67.53 66.3812 67.338 66.0279 67.0788 65.7265C66.8195 65.425 66.499 65.1823 66.1385 65.0145C65.664 64.812 65.1506 64.7165 64.635 64.7348C63.8308 64.7348 63.1665 64.9096 62.6245 65.2592C62.1 65.6089 61.8203 66.0459 61.8203 66.5879C61.8107 66.8079 61.8532 67.0271 61.9444 67.2277C62.0355 67.4282 62.1727 67.6043 62.3448 67.7418C62.6945 68.039 63.3063 68.2837 64.128 68.476L66.9077 69.0704C68.1725 69.2713 69.3577 69.8155 70.3343 70.6438C71.0861 71.3781 71.4707 72.3222 71.4882 73.476C71.4882 74.455 71.1735 75.3991 70.5791 76.1858C69.9433 77.0068 69.0977 77.641 68.1315 78.0215C66.986 78.4743 65.7616 78.6942 64.5301 78.6683C62.8388 78.7512 61.1622 78.3184 59.7224 77.4271C59.132 77.0315 58.6321 76.5154 58.2554 75.9128C57.8788 75.3101 57.634 74.6346 57.5371 73.9306L61.2784 73.5459C61.4532 74.2802 61.8028 74.8397 62.3623 75.2243C62.9217 75.5914 63.6385 75.7837 64.5126 75.7837C65.4217 75.7837 66.156 75.5914 66.7154 75.2243C67.2749 74.8397 67.5546 74.3851 67.5546 73.8257C67.5581 73.6048 67.511 73.386 67.4171 73.186C67.3232 72.9861 67.1848 72.8102 67.0126 72.6718C66.663 72.3746 66.1035 72.1473 65.3518 71.9725L62.5721 71.3956C61.0161 71.0634 59.8623 70.5215 59.1105 69.7522C58.7374 69.3594 58.4474 68.8952 58.2581 68.3874C58.0689 67.8797 57.9842 67.339 58.0091 66.7977C58.0091 65.8012 58.2714 64.9271 58.8133 64.1928C59.3728 63.4585 60.142 62.8816 61.1385 62.4795C62.2355 62.0524 63.4056 61.8445 64.5826 61.8676C66.4882 61.8676 67.9917 62.2697 69.0931 63.0914C70.1945 63.8956 70.8763 64.997 71.1385 66.3781Z" fill="white"/>
</svg>
